<?xml version="1.0" encoding="UTF-8" standalone="no"?>
<!-- Created with Inkscape (http://www.inkscape.org/) -->

<svg
   width="100mm"
   height="100mm"
   viewBox="0 0 100 100"
   version="1.1"
   id="svg1"
   xml:space="preserve"
   inkscape:version="1.4.3 (0d15f75042, 2025-12-25)"
   sodipodi:docname="slackware-logo-frutiger-aero.svg"
   inkscape:export-filename="slackware-logo-frutiger-aero.png"
   inkscape:export-xdpi="520.19202"
   inkscape:export-ydpi="520.19202"
   xmlns:inkscape="http://www.inkscape.org/namespaces/inkscape"
   xmlns:sodipodi="http://sodipodi.sourceforge.net/DTD/sodipodi-0.dtd"
   xmlns:xlink="http://www.w3.org/1999/xlink"
   xmlns="http://www.w3.org/2000/svg"
   xmlns:svg="http://www.w3.org/2000/svg"><sodipodi:namedview
     id="namedview1"
     pagecolor="#505050"
     bordercolor="#ffffff"
     borderopacity="1"
     inkscape:showpageshadow="0"
     inkscape:pageopacity="0"
     inkscape:pagecheckerboard="1"
     inkscape:deskcolor="#505050"
     inkscape:document-units="mm"
     inkscape:zoom="1.4142136"
     inkscape:cx="-59.043416"
     inkscape:cy="127.98633"
     inkscape:window-width="2546"
     inkscape:window-height="1029"
     inkscape:window-x="0"
     inkscape:window-y="0"
     inkscape:window-maximized="1"
     inkscape:current-layer="layer1" /><defs
     id="defs1"><pattern
       inkscape:collect="always"
       xlink:href="#Checkerboard"
       preserveAspectRatio="xMidYMid"
       id="pattern55"
       patternTransform="matrix(0.35355339,0.35355339,-0.35355339,0.35355339,0,0)"
       x="0"
       y="0" /><pattern
       inkscape:collect="always"
       style="fill:#232d63"
       patternUnits="userSpaceOnUse"
       width="2"
       height="2"
       patternTransform="translate(0,0) scale(10,10)"
       id="Checkerboard"
       inkscape:stockid="Checkerboard"
       preserveAspectRatio="xMidYMid"
       inkscape:isstock="true"
       inkscape:label="Checkerboard">
      <rect
   style="stroke:none"
   x="0"
   y="0"
   width="1"
   height="1"
   id="rect209" />
      <rect
   style="stroke:none"
   x="1"
   y="1"
   width="1"
   height="1"
   id="rect211" />
    </pattern><clipPath
       clipPathUnits="userSpaceOnUse"
       id="clipPath52"><path
         id="path52"
         style="stroke-width:0.1;stroke-linecap:square;paint-order:markers fill stroke;stop-color:#000000"
         d="m -880.82767,-187.29769 h 1640.84 v 73.28155 h -1640.84 z" /></clipPath><linearGradient
       id="linearGradient44"
       inkscape:collect="always"><stop
         style="stop-color:#f9f9f9;stop-opacity:1;"
         offset="0"
         id="stop44" /><stop
         style="stop-color:#f9f9f9;stop-opacity:0;"
         offset="1"
         id="stop45" /></linearGradient><linearGradient
       id="linearGradient38"
       inkscape:collect="always"><stop
         style="stop-color:#435598;stop-opacity:1;"
         offset="0"
         id="stop38" /><stop
         style="stop-color:#435598;stop-opacity:0.29900429;"
         offset="1"
         id="stop39" /></linearGradient><linearGradient
       id="linearGradient35"
       inkscape:collect="always"><stop
         style="stop-color:#ffffff;stop-opacity:1;"
         offset="0"
         id="stop35" /><stop
         style="stop-color:#ffffff;stop-opacity:0.40148592;"
         offset="1"
         id="stop36" /></linearGradient><linearGradient
       id="linearGradient33"
       inkscape:collect="always"><stop
         style="stop-color:#ffffff;stop-opacity:1;"
         offset="0"
         id="stop33" /><stop
         style="stop-color:#ffffff;stop-opacity:0.5951823;"
         offset="1"
         id="stop34" /></linearGradient><linearGradient
       id="linearGradient31"
       inkscape:collect="always"><stop
         style="stop-color:#ffffff;stop-opacity:1;"
         offset="0"
         id="stop31" /><stop
         style="stop-color:#ffffff;stop-opacity:0.28756127;"
         offset="1"
         id="stop32" /></linearGradient><linearGradient
       id="linearGradient30"
       inkscape:collect="always"><stop
         style="stop-color:#ffffff;stop-opacity:1;"
         offset="0.22807041"
         id="stop29" /><stop
         style="stop-color:#ffffff;stop-opacity:0;"
         offset="1"
         id="stop30" /></linearGradient><linearGradient
       id="linearGradient27"
       inkscape:collect="always"><stop
         style="stop-color:#ffffff;stop-opacity:1;"
         offset="0.34646302"
         id="stop27" /><stop
         style="stop-color:#ffffff;stop-opacity:0;"
         offset="1"
         id="stop28" /></linearGradient><linearGradient
       id="linearGradient25"
       inkscape:collect="always"><stop
         style="stop-color:#000000;stop-opacity:0;"
         offset="0"
         id="stop26" /><stop
         style="stop-color:#000000;stop-opacity:0.69430912;"
         offset="1"
         id="stop25" /></linearGradient><linearGradient
       id="linearGradient21"
       inkscape:collect="always"><stop
         style="stop-color:#ffffff;stop-opacity:1;"
         offset="0.12560552"
         id="stop21" /><stop
         style="stop-color:#12122d;stop-opacity:1;"
         offset="0.4394986"
         id="stop22" /><stop
         style="stop-color:#1a1a3c;stop-opacity:1;"
         offset="0.88901621"
         id="stop24" /><stop
         style="stop-color:#6262c9;stop-opacity:1;"
         offset="1"
         id="stop23" /></linearGradient><linearGradient
       id="linearGradient17"
       inkscape:collect="always"><stop
         style="stop-color:#ffffff;stop-opacity:1;"
         offset="0.40599418"
         id="stop17" /><stop
         style="stop-color:#8c9ac4;stop-opacity:0.72769594;"
         offset="1"
         id="stop18" /></linearGradient><linearGradient
       id="linearGradient14"
       inkscape:collect="always"><stop
         style="stop-color:#ffffff;stop-opacity:1;"
         offset="0.25541016"
         id="stop14" /><stop
         style="stop-color:#ffffff;stop-opacity:0;"
         offset="0.76413167"
         id="stop15" /></linearGradient><linearGradient
       inkscape:collect="always"
       xlink:href="#linearGradient14"
       id="linearGradient15"
       x1="50.36932"
       y1="-18.932167"
       x2="50.36932"
       y2="67.863358"
       gradientUnits="userSpaceOnUse"
       gradientTransform="matrix(1.0335319,0,0,1,-0.23376935,0)" /><radialGradient
       inkscape:collect="always"
       xlink:href="#linearGradient17"
       id="radialGradient18"
       cx="59.219872"
       cy="44.020157"
       fx="59.219872"
       fy="44.020157"
       r="45.105076"
       gradientUnits="userSpaceOnUse"
       gradientTransform="matrix(1.4285819,0,0,1.1226286,-25.987307,-4.7396602)" /><radialGradient
       inkscape:collect="always"
       xlink:href="#linearGradient21"
       id="radialGradient22"
       cx="41.768097"
       cy="26.239738"
       fx="41.768097"
       fy="26.239738"
       r="50"
       gradientUnits="userSpaceOnUse"
       gradientTransform="matrix(1.4656667,0,0,1.5582708,-19.45001,-14.648881)" /><linearGradient
       inkscape:collect="always"
       xlink:href="#linearGradient25"
       id="linearGradient26"
       x1="50.002617"
       y1="9.1179495"
       x2="50.002617"
       y2="109.11266"
       gradientUnits="userSpaceOnUse"
       gradientTransform="translate(0,0.03307292)" /><radialGradient
       inkscape:collect="always"
       xlink:href="#linearGradient30"
       id="radialGradient28"
       cx="15.808854"
       cy="35.189583"
       fx="15.808854"
       fy="35.189583"
       r="4.0348959"
       gradientTransform="matrix(1.7394987,-2.4436679e-8,4.086133e-8,2.90867,1.6261342,-78.206348)"
       gradientUnits="userSpaceOnUse" /><radialGradient
       inkscape:collect="always"
       xlink:href="#linearGradient27"
       id="radialGradient29"
       gradientUnits="userSpaceOnUse"
       gradientTransform="matrix(2.1153869,-2.6617014e-8,5.3922616e-8,3.5388493,-0.26072142,-128.6552)"
       cx="15.808854"
       cy="35.189583"
       fx="15.808854"
       fy="35.189583"
       r="4.0348959" /><linearGradient
       inkscape:collect="always"
       xlink:href="#linearGradient31"
       id="linearGradient32"
       x1="52.880844"
       y1="53.694836"
       x2="65.737358"
       y2="98.876747"
       gradientUnits="userSpaceOnUse" /><linearGradient
       inkscape:collect="always"
       xlink:href="#linearGradient33"
       id="linearGradient34"
       x1="34.494587"
       y1="41.494022"
       x2="22.239319"
       y2="98.776314"
       gradientUnits="userSpaceOnUse" /><linearGradient
       inkscape:collect="always"
       xlink:href="#linearGradient35"
       id="linearGradient36"
       x1="20.649094"
       y1="42.652149"
       x2="9.378129"
       y2="64.215691"
       gradientUnits="userSpaceOnUse" /><radialGradient
       inkscape:collect="always"
       xlink:href="#linearGradient38"
       id="radialGradient39"
       cx="48.578529"
       cy="47.420177"
       fx="48.578529"
       fy="47.420177"
       r="47.387707"
       gradientTransform="matrix(0.99720834,0,0,0.99789412,0.13561609,2.0843298)"
       gradientUnits="userSpaceOnUse" /><radialGradient
       inkscape:collect="always"
       xlink:href="#linearGradient44"
       id="radialGradient45"
       cx="119.83058"
       cy="5.8984447"
       fx="119.83058"
       fy="5.8984447"
       r="5.0448838"
       gradientTransform="matrix(1.7081294,0.13063383,-0.33617932,4.3957817,-82.293646,-35.385465)"
       gradientUnits="userSpaceOnUse" /><filter
       inkscape:collect="always"
       style="color-interpolation-filters:sRGB"
       id="filter47"
       x="-0.093379603"
       y="-0.10035833"
       width="1.1867592"
       height="1.2007167"><feGaussianBlur
         inkscape:collect="always"
         stdDeviation="2.4426274"
         id="feGaussianBlur47" /></filter><filter
       inkscape:collect="always"
       style="color-interpolation-filters:sRGB"
       id="filter56"
       x="-0.042376337"
       y="-0.037150956"
       width="1.0847527"
       height="1.0743019"><feGaussianBlur
         inkscape:collect="always"
         stdDeviation="0.72209075"
         id="feGaussianBlur56" /></filter><filter
       inkscape:collect="always"
       style="color-interpolation-filters:sRGB"
       id="filter57"
       x="-0.050114054"
       y="-0.043822048"
       width="1.1002281"
       height="1.0876441"><feGaussianBlur
         inkscape:collect="always"
         stdDeviation="0.83224261"
         id="feGaussianBlur57" /></filter></defs><g
     inkscape:groupmode="layer"
     id="layer2"
     inkscape:label="palette" /><g
     inkscape:label="Layer 1"
     inkscape:groupmode="layer"
     id="layer1"><path
       style="fill:url(#radialGradient22);stroke-width:20;stroke-linecap:square;stroke-miterlimit:9.5;paint-order:stroke fill markers;fill-opacity:1"
       id="path2"
       sodipodi:type="arc"
       sodipodi:cx="50"
       sodipodi:cy="50"
       sodipodi:rx="50"
       sodipodi:ry="50"
       sodipodi:start="6.1815122"
       sodipodi:end="6.0657522"
       sodipodi:open="true"
       sodipodi:arc-type="arc"
       d="M 99.741787,44.925099 A 50,50 0 0 1 56.512103,99.574111 50,50 0 0 1 0.63508085,57.94385 50,50 0 0 1 40.631055,0.88561449 50,50 0 0 1 98.82272,39.213806" /><path
       style="fill:url(#linearGradient32);fill-opacity:1;fill-rule:evenodd;stroke-width:23.0425;stroke-linecap:square;stroke-miterlimit:9.5;paint-order:stroke fill markers"
       d="m 80.704449,52.348038 c -16.518016,0 -39.984368,13.792346 -39.984368,30.284657 0,16.932961 10.531031,16.561213 16.058411,16.561213 21.577528,0 6.781529,-29.701443 23.925957,-46.84587 z"
       id="path11"
       sodipodi:nodetypes="cccc" /><path
       id="path7"
       style="display:inline;fill:#f9f9f9;fill-opacity:1;stroke-width:20;stroke-linecap:square;stroke-miterlimit:9.5;paint-order:stroke fill markers"
       d="M 47.584692,0.05839437 A 50,50 0 0 0 40.631112,0.88573405 50,50 0 0 0 0.63510335,57.94375 50,50 0 0 0 56.512313,99.574284 50,50 0 0 0 99.741715,44.924906 L 98.822909,39.213627 A 50,50 0 0 0 47.584692,0.05839437 Z M 47.76556,3.795634 a 46.258228,46.258228 0 0 1 47.403308,36.225179 l 0.850594,5.283915 A 46.258228,46.258228 0 0 1 56.025004,95.864433 46.258228,46.258228 0 0 1 4.3294515,57.349471 46.258228,46.258228 0 0 1 41.332361,4.5609619 46.258228,46.258228 0 0 1 47.76556,3.795634 Z" /><path
       style="fill:url(#linearGradient36);fill-opacity:1;fill-rule:evenodd;stroke-width:21.3824;stroke-linecap:square;stroke-miterlimit:9.5;paint-order:stroke fill markers"
       d="M 23.437921,19.586962 C 9.6093773,24.65683 -3.5347775,43.005132 1.9475707,57.958755 7.5764003,73.311918 15.521967,72.644988 20.149376,70.948472 45.931029,61.496317 12.395452,46.137144 23.437921,19.586962 Z"
       id="path15"
       sodipodi:nodetypes="cccc" /><path
       style="fill:#ffffff;fill-opacity:1;fill-rule:evenodd;stroke-width:8.95291;stroke-linecap:square;stroke-miterlimit:9.5;paint-order:stroke fill markers"
       d="m 97.532386,40.974828 c 1.66433,8.93663 2.31876,13.61723 1.20878,17.424024 -2.34819,9.685943 -7.9109,12.470197 -10.15705,9.131916 -4.1672,-6.818064 8.48956,-0.635108 8.94827,-26.55594 z"
       id="path20"
       sodipodi:nodetypes="cccc" /><path
       style="fill:url(#linearGradient34);fill-opacity:1;fill-rule:evenodd;stroke-width:28.601;stroke-linecap:square;stroke-miterlimit:9.5;paint-order:stroke fill markers"
       d="m 48.036193,11.675983 c -15.428976,0 -34.972858,21.695223 -34.972858,48.89747 0,27.929054 8.575969,29.271183 13.218181,31.53083 27.177962,13.229167 -15.083782,-69.216047 21.754677,-80.4283 z"
       id="path13"
       sodipodi:nodetypes="cccc" /><path
       style="display:inline;fill:#4b61ac;fill-opacity:0.825637;stroke-width:19.3915;stroke-linecap:square;stroke-miterlimit:9.5;paint-order:stroke fill markers"
       id="path8"
       sodipodi:type="arc"
       sodipodi:cx="50.3638"
       sodipodi:cy="51.521355"
       sodipodi:rx="48.478645"
       sodipodi:ry="48.478645"
       sodipodi:start="6.1815122"
       sodipodi:end="6.0657522"
       sodipodi:open="true"
       sodipodi:arc-type="arc"
       d="M 98.592089,46.600868 A 48.478645,48.478645 0 0 1 56.677758,99.58707 48.478645,48.478645 0 0 1 2.5009119,59.223497 48.478645,48.478645 0 0 1 41.279925,3.9013772 48.478645,48.478645 0 0 1 97.700987,41.063353" /><path
       id="path36"
       style="fill:url(#radialGradient39);stroke-width:18.9151;stroke-linecap:square;stroke-miterlimit:9.5;paint-order:stroke fill markers"
       d="M 49.203516,2.1204555 A 47.287932,47.287932 0 0 0 39.74994,2.954246 47.287932,47.287932 0 0 0 1.9237823,56.917701 47.287932,47.287932 0 0 0 54.769506,96.289823 47.287932,47.287932 0 0 0 95.833944,50.276235 46.100632,46.100632 0 0 1 55.802209,93.925527 46.100632,46.100632 0 0 1 4.2829251,55.541793 46.100632,46.100632 0 0 1 41.159859,2.9336332 46.100632,46.100632 0 0 1 49.203516,2.1204555 Z" /><path
       id="path47"
       style="display:inline;fill:#ffffff;fill-opacity:0.50191313;stroke:none;stroke-width:5;stroke-linecap:square;stroke-miterlimit:9.5;stroke-dasharray:none;stroke-dashoffset:145.134;stroke-opacity:1;paint-order:stroke fill markers;filter:url(#filter47)"
       inkscape:label="slackware-logo-text-glow"
       d="m 47.490655,18.427488 c -5.144114,0.126202 -10.550684,1.022877 -14.789793,4.135737 -4.05092,2.922218 -6.406309,8.269011 -5.222668,13.205371 0.782217,3.588051 3.638914,6.349429 6.857025,7.900109 4.650212,2.280558 9.901784,3.014411 15.035456,3.031636 3.658384,0.184365 7.534164,0.650961 10.621933,2.787694 1.641381,1.147452 2.789952,3.117035 2.511719,5.160156 -0.05447,2.483977 -1.749841,4.632781 -3.88394,5.761316 -3.223202,1.767665 -7.05058,2.274929 -10.581294,2.377662 -3.953921,0.142292 -8.053209,-1.124647 -10.880036,-3.973032 -1.267923,-1.275828 -2.404647,-2.774417 -3.014853,-4.469035 0.03204,-1.562414 -1.129634,-2.999968 -2.668957,-3.285803 -1.516525,-0.28863 -3.261591,-0.2345 -4.554904,0.698267 -0.927517,0.667722 -1.050056,1.87461 -0.957032,2.923828 0.02485,3.592525 -0.04895,7.188802 0.03542,10.779096 0.08688,1.751245 1.418494,3.309573 3.144048,3.645734 1.52119,0.300093 3.300894,0.32157 4.59592,-0.653346 0.72197,-0.569996 1.118061,-1.473086 1.193359,-2.376953 3.935045,2.032814 8.363217,3.064787 12.78832,3.053893 5.242242,0.134519 10.646042,-0.44392 15.446223,-2.678252 3.419436,-1.575058 6.377248,-4.46809 7.356792,-8.179964 0.538907,-2.020111 0.670127,-4.160233 0.410619,-6.232786 -0.576869,-3.996527 -3.335051,-7.429688 -6.844142,-9.310418 -4.880676,-2.670446 -10.579682,-3.181402 -16.04674,-3.198654 -3.315435,-0.201898 -6.785631,-0.715095 -9.614978,-2.574913 -1.608573,-1.032685 -2.611404,-2.964655 -2.290621,-4.880746 0.186343,-2.700482 2.13186,-5.026615 4.584468,-6.048683 3.106775,-1.357117 6.60109,-1.542397 9.94198,-1.301863 3.925564,0.33145 7.918643,2.259879 9.911216,5.780516 0.524726,0.742007 0.395089,1.766457 1.097098,2.417573 1.456184,1.488515 3.903758,1.693079 5.751953,0.865235 0.953055,-0.392769 1.446077,-1.43672 1.289062,-2.432032 -0.01482,-3.380921 0.02932,-6.765364 -0.02148,-10.14414 -0.328179,-1.486179 -1.945348,-2.144552 -3.277466,-2.474127 -1.644905,-0.340294 -3.701367,0.01909 -4.677612,1.515142 -0.09695,0.577966 -0.460031,0.187369 -0.797096,0.05154 -3.888799,-1.692553 -8.266306,-1.899059 -12.448998,-1.875759 z M 17.051202,60.915769 c -0.0069,5.307943 -0.01579,10.615884 -0.02148,15.923828 20.926432,0 41.852864,0 62.779297,0 0,-0.758464 0,-1.516927 0,-2.275391 -20.238933,0 -40.477865,0 -60.716797,0 0,-4.725911 0,-9.451823 0,-14.177734 -0.680339,0 -1.360677,0 -2.041016,0 0,0.176432 0,0.352865 0,0.529297 z" /><path
       id="path1"
       style="display:inline;fill:#0f131c;stroke-width:5;stroke-linecap:square;stroke-miterlimit:9.5;stroke-dashoffset:145.134;paint-order:stroke fill markers;stroke:none;stroke-opacity:1;stroke-dasharray:none;fill-opacity:1"
       d="m 46.908531,16.576317 c -21.509617,0 -20.784261,14.140739 -20.784261,14.140739 0,12.884523 19.753316,13.040548 19.753316,13.040548 16.767094,0 15.587679,8.096146 15.587679,8.096146 0,9.4824 -15.557707,9.092985 -15.557707,9.092985 -10.728546,0 -13.86582,-8.760705 -13.86582,-8.760705 0,-3.445908 -3.655074,-3.111438 -3.655074,-3.111438 -3.628186,0 -3.474206,2.235522 -3.474206,2.235522 V 62.4376 c 0,4.421677 4.501534,3.93051 4.501534,3.93051 4.004103,0 3.396175,-3.567224 3.396175,-3.567224 0,0 5.474732,3.396175 12.688631,3.396175 0,0 23.432678,1.816663 23.432678,-14.204818 0,0 1.727776,-14.290084 -21.852413,-14.290084 -2.299037,0 -13.093774,-0.724041 -13.093774,-7.241418 0,-2.410582 1.074137,-8.736418 13.093774,-8.736418 10.298102,0 12.816789,7.048665 12.816789,7.048665 0,0 -0.06684,2.371926 3.588411,2.606043 0,0 3.050703,0.02587 3.118673,-1.794206 V 19.075389 c -0.03021,-1.472673 -2.708469,-2.299284 -3.65249,-2.306836 -3.602385,0 -3.653007,2.306836 -3.653007,2.306836 0,0 -2.975803,-2.499072 -12.388908,-2.499072 z M 15.999307,58.544815 15.978119,73.940257 H 77.699933 V 72.722761 H 16.982192 V 58.544815 Z"
       transform="translate(1.580499,2.370847)"
       inkscape:label="slackware-logo-text"
       sodipodi:nodetypes="scccccccsccccscsccccccsccccccc" /><path
       id="path48"
       style="display:inline;fill:url(#pattern55);stroke:none;stroke-width:5;stroke-linecap:square;stroke-miterlimit:9.5;stroke-dasharray:none;stroke-dashoffset:145.134;stroke-opacity:1;paint-order:stroke fill markers"
       inkscape:label="slackware-logo-text-inner-background"
       d="m 46.091797,20.089844 c -3.702187,0.211235 -7.461561,0.91182 -10.742188,2.71289 -1.117151,0.627382 -2.377064,1.499915 -3.334727,2.493472 -3.135215,3.181031 -4.308889,8.482124 -2.00707,12.455747 1.984282,3.355118 5.793692,5.161006 9.382166,6.120261 5.372445,1.474207 11.069559,0.938258 16.512763,2.124633 3.088055,0.758217 6.261942,2.443868 7.649993,5.448465 1.557059,3.742205 -0.353789,8.411121 -3.961403,10.172151 -3.630196,2.161023 -7.961748,2.615557 -12.101067,2.738442 -4.945268,-0.04442 -10.104506,-2.099794 -13.007051,-6.243698 -1.079596,-1.439628 -1.685373,-3.161381 -2.351471,-4.804634 -1.006929,-1.126954 -2.899659,-1.071902 -4.077054,-0.258745 -0.900218,0.949924 -0.355704,2.342154 -0.462891,3.498047 0.03082,3.225783 -0.288579,6.504492 0.326139,9.68797 0.871757,1.697951 3.435994,1.947192 4.847689,0.808124 0.644641,-0.582043 0.407378,-1.682747 1.263672,-2.101563 0.984986,-0.612322 2.162765,-0.158936 3.07116,0.363464 4.709442,2.076863 9.977352,2.521801 15.01094,2.158733 4.104208,-0.35759 8.328154,-1.161771 11.932219,-3.370403 2.654412,-1.561754 4.620311,-4.240269 5.190187,-7.279317 C 70.102312,52.808454 68.810612,48.275264 65.539176,45.688547 61.776505,42.551167 56.70342,41.593616 51.970462,41.28359 47.402551,41.011548 42.564581,41.062603 38.4375,38.798828 c -2.110162,-1.129272 -3.827275,-3.248952 -3.890697,-5.71811 -0.279994,-3.728228 2.346267,-7.229213 5.743962,-8.561413 3.267925,-1.377556 6.908623,-1.596485 10.407962,-1.349913 4.262236,0.400941 8.639583,2.373323 10.937992,6.127483 0.718503,1.072224 0.900777,2.673878 2.259256,3.16114 1.03818,0.39606 2.289786,0.275457 3.232931,-0.282234 -0.06761,-2.785528 0.007,-5.597952 -0.03315,-8.394889 -0.0053,-0.857493 -0.02456,-1.714871 -0.05279,-2.571908 -1.762229,-1.463256 -4.766199,-1.170886 -6.066407,0.771485 -1.284624,0.392187 -2.345777,-0.652973 -3.550211,-0.869812 -3.682206,-1.129981 -7.513916,-1.02951 -11.334554,-1.020813 z" /><path
       id="path55"
       style="display:inline;fill:#233881;stroke:none;stroke-width:5;stroke-linecap:square;stroke-miterlimit:9.5;stroke-dasharray:none;stroke-dashoffset:145.134;stroke-opacity:1;paint-order:stroke fill markers;fill-opacity:1;filter:url(#filter56);opacity:1"
       inkscape:label="slackware-logo-text-inner-glow"
       d="m 46.634766,20.578125 c -4.768237,0.211528 -9.802648,1.202536 -13.535756,4.375129 -3.155854,2.797432 -4.792485,7.576438 -3.143932,11.593621 1.422894,3.344534 4.803219,5.304636 8.12238,6.37096 4.366854,1.524213 9.037556,1.588315 13.604101,1.83015 3.917167,0.351655 8.057786,1.382942 10.932034,4.231276 2.420798,2.590259 2.699918,6.796282 0.785307,9.753457 -1.652034,2.743712 -4.659518,4.292341 -7.667735,5.083554 -3.926425,1.102511 -8.11289,1.385322 -12.137069,0.697078 -4.97268,-1.030942 -9.662236,-4.596705 -11.410922,-9.507406 -0.08963,-0.819773 -0.422244,-1.919585 -1.429268,-1.914147 -0.871016,-0.141043 -2.002889,-0.134386 -2.597793,0.55242 -0.217194,1.702305 0.03521,3.420547 -0.05966,5.13075 -0.03141,2.453661 -0.12732,4.921804 0.235578,7.357845 0.92804,1.243346 2.87658,1.366599 4.105469,0.587891 0.679743,-0.843966 0.398902,-2.008968 0.653759,-2.997802 0.05708,-0.546482 -0.01038,-1.324489 0.660642,-0.633602 4.19936,2.436067 8.992181,3.919389 13.868597,3.929588 4.680365,0.07493 9.488143,-0.328709 13.85222,-2.135788 2.94694,-1.232749 5.717246,-3.406707 6.774011,-6.523279 1.299603,-3.644217 0.878544,-8.098385 -1.780779,-11.045155 -2.915395,-3.298696 -7.353805,-4.677751 -11.589626,-5.240002 -3.410314,-0.4969 -6.943592,-0.292871 -10.304058,-0.769975 -3.192515,-0.482687 -6.63102,-1.5969 -8.95135,-4.028047 -2.350744,-2.799627 -2.050205,-7.16949 0.15975,-9.962623 2.123564,-2.869373 5.718427,-4.1995 9.148107,-4.560712 4.800416,-0.667065 10.193971,-0.08437 14.18792,2.966717 1.862029,1.421288 3.350592,3.37392 4.053229,5.621774 0.850422,1.009271 2.368876,0.967727 3.486328,0.470703 -0.197838,-3.442278 0.106325,-6.894755 -0.173828,-10.333984 -1.080479,-0.795333 -2.766725,-1.08767 -3.847656,-0.16211 -0.441197,0.748531 -1.152928,1.449196 -2.096,1.319875 -1.518163,-0.134372 -2.800359,-1.137018 -4.315882,-1.327438 -3.133141,-0.748217 -6.383732,-0.78676 -9.588118,-0.730718 z" /><path
       id="path56"
       style="display:inline;fill:#ffffff;stroke:none;stroke-width:5;stroke-linecap:square;stroke-miterlimit:9.5;stroke-dasharray:none;stroke-dashoffset:145.134;stroke-opacity:1;paint-order:stroke fill markers;fill-opacity:1;filter:url(#filter57);opacity:0.28890831"
       inkscape:label="slackware-logo-text-inner-glow-2"
       d="m 46.517578,21.111328 c -2.696343,0.141026 -5.274305,0.479238 -7.872914,1.348439 -3.566808,1.182539 -6.968246,3.664066 -8.214424,7.339327 -0.705183,1.938476 -0.817151,4.103862 -0.182992,6.010291 1.007184,3.16053 4.021998,5.097774 6.961358,6.246401 3.521008,1.313824 7.256301,1.903529 10.966402,1.954443 4.505571,0.162445 9.272768,0.583114 13.120277,3.168327 2.507012,1.636698 4.167419,4.604407 3.877556,7.631994 -0.181478,3.217196 -2.173893,6.170842 -4.96514,7.730365 -3.715094,2.123869 -8.077961,2.818074 -12.30731,2.874019 -3.807464,0.12467 -7.670363,-0.926192 -10.761961,-3.182071 -2.349097,-1.694107 -4.303582,-4.022366 -5.372266,-6.726468 -0.300762,-0.539347 -0.102813,-1.288357 -0.553273,-1.723192 -0.719748,-0.337221 -1.606053,-0.26833 -2.359375,-0.08008 -0.541928,0.23064 -0.124782,0.939895 -0.240835,1.380309 0.07752,3.5648 -0.177338,7.152271 0.149038,10.701722 0.582512,1.00957 1.983545,0.955387 2.976261,0.747604 0.847691,-0.242866 0.485583,-1.231722 0.470349,-1.869975 -0.156672,-1.203422 -0.307374,-2.407054 -0.436845,-3.613957 2.448184,1.713295 5.031699,3.193708 7.925245,4.151808 2.567312,0.884707 5.265293,1.258388 7.903615,1.282192 4.553844,0.105581 9.165464,-0.281133 13.429233,-1.990589 2.923394,-1.133248 5.645653,-3.243644 6.739683,-6.272089 0.784467,-2.447325 0.936998,-5.198699 0.05702,-7.643008 -1.213423,-3.305243 -4.252443,-5.489209 -7.500631,-6.660945 -3.695001,-1.367773 -7.650801,-1.645591 -11.529357,-1.735686 -3.883225,-0.09153 -7.884451,-0.684546 -11.283582,-2.676639 -2.202808,-1.252583 -3.851325,-3.525324 -4.045561,-6.087716 -0.345437,-3.928639 2.068621,-7.804016 5.566464,-9.525242 4.355831,-2.059596 9.384983,-2.285952 14.072885,-1.463869 4.316853,0.913582 8.465046,3.646454 10.254828,7.785846 0.144009,0.536399 0.309353,1.265734 0.989323,1.286864 0.553359,0.161344 1.160211,0.165573 1.704037,-0.03491 0.0017,-3.2111 0.0552,-6.423963 -0.0293,-9.634766 -0.826695,-0.632912 -2.107714,-0.774879 -2.988282,-0.207031 -0.06997,0.725292 -0.187766,1.534208 -0.877978,1.947172 -0.800688,0.585136 -1.929014,0.300197 -2.572563,-0.3819 -2.306889,-1.520765 -5.169024,-1.687892 -7.835488,-1.991286 -1.740573,-0.135769 -3.489311,-0.145719 -5.233502,-0.08571 z" /><path
       id="path16"
       style="fill:url(#radialGradient18);fill-opacity:0.439521;stroke-width:18.3302;stroke-linecap:square;stroke-miterlimit:9.5;paint-order:stroke fill markers"
       d="M 49.183102,2.8316756 A 45.825364,45.825364 0 0 0 42.809945,3.5897972 45.825364,45.825364 0 0 0 6.153398,55.883917 45.825364,45.825364 0 0 0 57.364936,94.038332 45.825364,45.825364 0 0 0 96.985194,43.952426 l -0.842124,-5.2344 A 45.825364,45.825364 0 0 0 49.183102,2.8316756 Z m 4.811763,3.3511708 A 38.029943,38.029943 0 0 1 92.966203,35.964322 l 0.69932,4.343975 A 38.029943,38.029943 0 0 1 60.784883,81.874259 38.029943,38.029943 0 0 1 18.28492,50.210079 38.029943,38.029943 0 0 1 48.705864,6.8118144 38.029943,38.029943 0 0 1 53.994865,6.1828464 Z" /><path
       id="path12"
       style="display:inline;fill:#ffffff;fill-opacity:0.2184727;stroke-width:20;stroke-linecap:square;stroke-miterlimit:9.5;paint-order:stroke fill markers"
       d="M 47.584692,0.05839437 A 50,50 0 0 0 40.631112,0.88573405 50,50 0 0 0 0.63510335,57.94375 50,50 0 0 0 56.512313,99.574284 50,50 0 0 0 99.741715,44.924906 L 98.822909,39.213627 A 50,50 0 0 0 47.584692,0.05839437 Z M 47.76556,3.795634 a 46.258228,46.258228 0 0 1 47.403308,36.225179 l 0.850594,5.283915 A 46.258228,46.258228 0 0 1 56.025004,95.864433 46.258228,46.258228 0 0 1 4.3294515,57.349471 46.258228,46.258228 0 0 1 41.332361,4.5609619 46.258228,46.258228 0 0 1 47.76556,3.795634 Z" /><path
       id="path5"
       style="fill:url(#linearGradient15);stroke-width:17.5415;stroke-linecap:square;stroke-miterlimit:9.5;paint-order:stroke fill markers"
       d="M 49.320678,0.7012212 C 47.231243,0.7574096 45.154707,1.0361317 43.101484,1.4128111 23.917326,4.9319355 5.5140861,19.649341 7.0628792,38.670606 9.3745244,58.057495 30.278518,20.99196 51.760044,21.180843 80.653416,21.434899 94.427655,66.163291 96.636622,40.084038 97.718542,24.504294 77.202308,-0.0498586 49.320678,0.7012212 Z"
       sodipodi:nodetypes="cccscc" /><path
       id="path24"
       style="fill:url(#linearGradient26);fill-opacity:1;stroke-width:20;stroke-linecap:square;stroke-miterlimit:9.5;paint-order:stroke fill markers"
       d="M 11.422559,18.263485 A 50,50 0 0 0 0.63510335,57.976823 50,50 0 0 0 56.512313,99.607357 50,50 0 0 0 99.741715,44.957979 L 98.822909,39.2467 A 50,50 0 0 0 89.74491,19.764168 49.338543,49.338543 0 0 1 98.176953,38.330994 l 0.906922,5.635831 A 49.338543,49.338543 0 0 1 56.426013,97.89325 49.338543,49.338543 0 0 1 1.2882935,56.813587 49.338543,49.338543 0 0 1 11.422559,18.263485 Z" /><path
       style="fill:url(#radialGradient28);fill-opacity:1;fill-rule:evenodd;stroke-width:34.7901;stroke-linecap:square;stroke-miterlimit:9.5;paint-order:stroke fill markers"
       id="path27"
       sodipodi:type="arc"
       sodipodi:cx="29.125616"
       sodipodi:cy="24.148529"
       sodipodi:rx="7.0186963"
       sodipodi:ry="11.736181"
       sodipodi:start="6.1815122"
       sodipodi:end="6.0657522"
       sodipodi:open="true"
       sodipodi:arc-type="arc"
       d="m 36.108066,22.95733 a 7.0186963,11.736181 0 0 1 -6.068321,12.827414 7.0186963,11.736181 0 0 1 -7.843676,-9.771606 7.0186963,11.736181 0 0 1 5.614391,-13.392916 7.0186963,11.736181 0 0 1 8.168593,8.996532"
       transform="rotate(23.861853)" /><path
       style="fill:url(#radialGradient29);fill-opacity:1;fill-rule:evenodd;stroke-width:42.3177;stroke-linecap:square;stroke-miterlimit:9.5;paint-order:stroke fill markers"
       id="path28"
       sodipodi:type="arc"
       sodipodi:cx="33.181122"
       sodipodi:cy="-4.1245794"
       sodipodi:rx="8.5353661"
       sodipodi:ry="14.27889"
       sodipodi:start="6.1815122"
       sodipodi:end="6.0657522"
       sodipodi:open="true"
       sodipodi:arc-type="arc"
       d="M 41.672409,-5.5738585 A 8.5353661,14.27889 0 0 1 34.292785,10.032686 8.5353661,14.27889 0 0 1 24.754169,-1.8559922 8.5353661,14.27889 0 0 1 31.581774,-18.150557 8.5353661,14.27889 0 0 1 41.515518,-7.2048769"
       transform="matrix(0.69083523,0.72301223,-0.72891761,0.68460143,0,0)" /><path
       style="fill:#415396;fill-opacity:0.285616;fill-rule:evenodd;stroke-width:21.3824;stroke-linecap:square;stroke-miterlimit:9.5;paint-order:stroke fill markers"
       d="M 88.081871,63.252687 C 93.914685,43.629352 95.285017,31.745648 84.195995,18.34042 73.772953,5.740279 59.230207,9.6679993 62.127775,10.924856 86.205503,22.201459 88.503419,30.581844 88.081871,63.252687 Z"
       id="path39"
       sodipodi:nodetypes="cccc" /><path
       id="path44"
       style="fill:url(#radialGradient45);fill-opacity:1;stroke-width:4.62566;stroke-linecap:square;stroke-miterlimit:9.5;paint-order:stroke fill markers"
       d="M 114.93806 -13.076095 A 6.674479 20.035938 0 0 0 110.50276 9.0705451 A 6.674479 20.035938 0 0 0 116.16736 25.729972 A 50 50 0 0 0 116.5734 -14.087598 A 6.674479 20.035938 0 0 0 115.84161 -13.793553 A 6.674479 20.035938 0 0 0 114.93806 -13.076095 z "
       transform="rotate(40.65847)" /></g></svg>
