<?xml version="1.0" encoding="UTF-8" standalone="no"?>
<!-- Created with Inkscape (http://www.inkscape.org/) -->

<svg
   width="2560mm"
   height="1080mm"
   viewBox="0 0 2560 1080"
   version="1.1"
   id="svg1"
   xml:space="preserve"
   inkscape:version="1.4.3 (0d15f75042, 2025-12-25)"
   sodipodi:docname="slackware-wallpaper-21_9.svg"
   inkscape:export-filename="slackware-wallpaper-21_9.png"
   inkscape:export-xdpi="50.799999"
   inkscape:export-ydpi="50.799999"
   xmlns:inkscape="http://www.inkscape.org/namespaces/inkscape"
   xmlns:sodipodi="http://sodipodi.sourceforge.net/DTD/sodipodi-0.dtd"
   xmlns:xlink="http://www.w3.org/1999/xlink"
   xmlns="http://www.w3.org/2000/svg"
   xmlns:svg="http://www.w3.org/2000/svg"><sodipodi:namedview
     id="namedview1"
     pagecolor="#505050"
     bordercolor="#ffffff"
     borderopacity="1"
     inkscape:showpageshadow="0"
     inkscape:pageopacity="0"
     inkscape:pagecheckerboard="1"
     inkscape:deskcolor="#505050"
     inkscape:document-units="mm"
     showguides="false"
     inkscape:zoom="0.1767767"
     inkscape:cx="4726.3017"
     inkscape:cy="2025.1538"
     inkscape:window-width="2546"
     inkscape:window-height="1029"
     inkscape:window-x="0"
     inkscape:window-y="0"
     inkscape:window-maximized="1"
     inkscape:current-layer="layer1" /><defs
     id="defs1"><linearGradient
       id="linearGradient11"
       inkscape:collect="always"><stop
         style="stop-color:#6779be;stop-opacity:1;"
         offset="0.16071144"
         id="stop12" /><stop
         style="stop-color:#405292;stop-opacity:0;"
         offset="0.56739622"
         id="stop13" /></linearGradient><linearGradient
       id="linearGradient6-1"><stop
         style="stop-color:#000000;stop-opacity:0.3703143;"
         offset="0.39509979"
         id="stop10" /><stop
         style="stop-color:#425497;stop-opacity:0;"
         offset="1"
         id="stop11" /></linearGradient><linearGradient
       id="linearGradient6"><stop
         style="stop-color:#425497;stop-opacity:1;"
         offset="0.39509979"
         id="stop8" /><stop
         style="stop-color:#425497;stop-opacity:0;"
         offset="1"
         id="stop9" /></linearGradient><linearGradient
       id="linearGradient6-2"><stop
         style="stop-color:#959595;stop-opacity:0.3703143;"
         offset="0.39509979"
         id="stop6" /><stop
         style="stop-color:#425497;stop-opacity:0;"
         offset="1"
         id="stop7" /></linearGradient><pattern
       inkscape:collect="always"
       xlink:href="#Checkerboard"
       preserveAspectRatio="xMidYMid"
       id="pattern55"
       patternTransform="matrix(0.35355339,0.35355339,-0.35355339,0.35355339,0,0)"
       x="0"
       y="0" /><pattern
       inkscape:collect="always"
       style="fill:#232d63"
       patternUnits="userSpaceOnUse"
       width="2"
       height="2"
       patternTransform="translate(0,0) scale(10,10)"
       id="Checkerboard"
       inkscape:stockid="Checkerboard"
       preserveAspectRatio="xMidYMid"
       inkscape:isstock="true"
       inkscape:label="Checkerboard">
      <rect
   style="stroke:none"
   x="0"
   y="0"
   width="1"
   height="1"
   id="rect209" />
      <rect
   style="stroke:none"
   x="1"
   y="1"
   width="1"
   height="1"
   id="rect211" />
    </pattern><clipPath
       clipPathUnits="userSpaceOnUse"
       id="clipPath52"><path
         id="path52"
         style="stroke-width:0.1;stroke-linecap:square;paint-order:markers fill stroke;stop-color:#000000"
         d="m -880.82767,-187.29769 h 1640.84 v 73.28155 h -1640.84 z" /></clipPath><linearGradient
       id="linearGradient44"
       inkscape:collect="always"><stop
         style="stop-color:#f9f9f9;stop-opacity:1;"
         offset="0"
         id="stop44" /><stop
         style="stop-color:#f9f9f9;stop-opacity:0;"
         offset="1"
         id="stop45" /></linearGradient><linearGradient
       id="linearGradient38"
       inkscape:collect="always"><stop
         style="stop-color:#435598;stop-opacity:1;"
         offset="0"
         id="stop38" /><stop
         style="stop-color:#435598;stop-opacity:0.29900429;"
         offset="1"
         id="stop39" /></linearGradient><linearGradient
       id="linearGradient35"
       inkscape:collect="always"><stop
         style="stop-color:#ffffff;stop-opacity:1;"
         offset="0"
         id="stop35" /><stop
         style="stop-color:#ffffff;stop-opacity:0.40148592;"
         offset="1"
         id="stop36" /></linearGradient><linearGradient
       id="linearGradient33"
       inkscape:collect="always"><stop
         style="stop-color:#ffffff;stop-opacity:1;"
         offset="0"
         id="stop33" /><stop
         style="stop-color:#ffffff;stop-opacity:0.5951823;"
         offset="1"
         id="stop34" /></linearGradient><linearGradient
       id="linearGradient31"
       inkscape:collect="always"><stop
         style="stop-color:#ffffff;stop-opacity:1;"
         offset="0"
         id="stop31" /><stop
         style="stop-color:#ffffff;stop-opacity:0.28756127;"
         offset="1"
         id="stop32" /></linearGradient><linearGradient
       id="linearGradient30"
       inkscape:collect="always"><stop
         style="stop-color:#ffffff;stop-opacity:1;"
         offset="0.22807041"
         id="stop29" /><stop
         style="stop-color:#ffffff;stop-opacity:0;"
         offset="1"
         id="stop30" /></linearGradient><linearGradient
       id="linearGradient27"
       inkscape:collect="always"><stop
         style="stop-color:#ffffff;stop-opacity:1;"
         offset="0.34646302"
         id="stop27" /><stop
         style="stop-color:#ffffff;stop-opacity:0;"
         offset="1"
         id="stop28" /></linearGradient><linearGradient
       id="linearGradient25"
       inkscape:collect="always"><stop
         style="stop-color:#000000;stop-opacity:0;"
         offset="0"
         id="stop26" /><stop
         style="stop-color:#000000;stop-opacity:0.69430912;"
         offset="1"
         id="stop25" /></linearGradient><linearGradient
       id="linearGradient21"
       inkscape:collect="always"><stop
         style="stop-color:#ffffff;stop-opacity:1;"
         offset="0.12560552"
         id="stop21" /><stop
         style="stop-color:#12122d;stop-opacity:1;"
         offset="0.4394986"
         id="stop22" /><stop
         style="stop-color:#1a1a3c;stop-opacity:1;"
         offset="0.88901621"
         id="stop24" /><stop
         style="stop-color:#6262c9;stop-opacity:1;"
         offset="1"
         id="stop23" /></linearGradient><linearGradient
       id="linearGradient17"
       inkscape:collect="always"><stop
         style="stop-color:#ffffff;stop-opacity:1;"
         offset="0.40599418"
         id="stop17" /><stop
         style="stop-color:#8c9ac4;stop-opacity:0.72769594;"
         offset="1"
         id="stop18" /></linearGradient><linearGradient
       id="linearGradient14"
       inkscape:collect="always"><stop
         style="stop-color:#ffffff;stop-opacity:1;"
         offset="0.25541016"
         id="stop14" /><stop
         style="stop-color:#ffffff;stop-opacity:0;"
         offset="0.76413167"
         id="stop15" /></linearGradient><linearGradient
       inkscape:collect="always"
       xlink:href="#linearGradient14"
       id="linearGradient15"
       x1="50.36932"
       y1="-18.932167"
       x2="50.36932"
       y2="67.863358"
       gradientUnits="userSpaceOnUse"
       gradientTransform="matrix(1.0335319,0,0,1,-0.23376935,0)" /><radialGradient
       inkscape:collect="always"
       xlink:href="#linearGradient17"
       id="radialGradient18"
       cx="59.219872"
       cy="44.020157"
       fx="59.219872"
       fy="44.020157"
       r="45.105076"
       gradientUnits="userSpaceOnUse"
       gradientTransform="matrix(1.4285819,0,0,1.1226286,-25.987307,-4.7396602)" /><radialGradient
       inkscape:collect="always"
       xlink:href="#linearGradient21"
       id="radialGradient22"
       cx="41.768097"
       cy="26.239738"
       fx="41.768097"
       fy="26.239738"
       r="50"
       gradientUnits="userSpaceOnUse"
       gradientTransform="matrix(1.4656667,0,0,1.5582708,-19.45001,-14.648881)" /><linearGradient
       inkscape:collect="always"
       xlink:href="#linearGradient25"
       id="linearGradient26"
       x1="50.002617"
       y1="9.1179495"
       x2="50.002617"
       y2="109.11266"
       gradientUnits="userSpaceOnUse"
       gradientTransform="translate(0,0.03307292)" /><radialGradient
       inkscape:collect="always"
       xlink:href="#linearGradient30"
       id="radialGradient28"
       cx="15.808854"
       cy="35.189583"
       fx="15.808854"
       fy="35.189583"
       r="4.0348959"
       gradientTransform="matrix(1.7394987,-2.4436679e-8,4.086133e-8,2.90867,1.6261342,-78.206348)"
       gradientUnits="userSpaceOnUse" /><radialGradient
       inkscape:collect="always"
       xlink:href="#linearGradient27"
       id="radialGradient29"
       gradientUnits="userSpaceOnUse"
       gradientTransform="matrix(2.1153869,-2.6617014e-8,5.3922615e-8,3.5388493,-0.26072142,-128.6552)"
       cx="15.808854"
       cy="35.189583"
       fx="15.808854"
       fy="35.189583"
       r="4.0348959" /><linearGradient
       inkscape:collect="always"
       xlink:href="#linearGradient31"
       id="linearGradient32"
       x1="52.880844"
       y1="53.694836"
       x2="65.737358"
       y2="98.876747"
       gradientUnits="userSpaceOnUse" /><linearGradient
       inkscape:collect="always"
       xlink:href="#linearGradient33"
       id="linearGradient34"
       x1="34.494587"
       y1="41.494022"
       x2="22.239319"
       y2="98.776314"
       gradientUnits="userSpaceOnUse" /><linearGradient
       inkscape:collect="always"
       xlink:href="#linearGradient35"
       id="linearGradient36"
       x1="20.649094"
       y1="42.652149"
       x2="9.378129"
       y2="64.215691"
       gradientUnits="userSpaceOnUse" /><radialGradient
       inkscape:collect="always"
       xlink:href="#linearGradient38"
       id="radialGradient39"
       cx="48.578529"
       cy="47.420177"
       fx="48.578529"
       fy="47.420177"
       r="47.387707"
       gradientTransform="matrix(0.99720834,0,0,0.99789412,0.13561609,2.0843298)"
       gradientUnits="userSpaceOnUse" /><radialGradient
       inkscape:collect="always"
       xlink:href="#linearGradient44"
       id="radialGradient45"
       cx="119.83058"
       cy="5.8984447"
       fx="119.83058"
       fy="5.8984447"
       r="5.0448837"
       gradientTransform="matrix(1.7081294,0.13063383,-0.33617932,4.3957817,-82.293646,-35.385465)"
       gradientUnits="userSpaceOnUse" /><filter
       inkscape:collect="always"
       style="color-interpolation-filters:sRGB"
       id="filter47"
       x="-0.093379603"
       y="-0.10035833"
       width="1.1867592"
       height="1.2007167"><feGaussianBlur
         inkscape:collect="always"
         stdDeviation="2.4426274"
         id="feGaussianBlur47" /></filter><filter
       inkscape:collect="always"
       style="color-interpolation-filters:sRGB"
       id="filter56"
       x="-0.042376337"
       y="-0.037150956"
       width="1.0847527"
       height="1.0743019"><feGaussianBlur
         inkscape:collect="always"
         stdDeviation="0.72209075"
         id="feGaussianBlur56" /></filter><filter
       inkscape:collect="always"
       style="color-interpolation-filters:sRGB"
       id="filter57"
       x="-0.050114054"
       y="-0.043822048"
       width="1.1002281"
       height="1.0876441"><feGaussianBlur
         inkscape:collect="always"
         stdDeviation="0.83224261"
         id="feGaussianBlur57" /></filter><radialGradient
       inkscape:collect="always"
       xlink:href="#linearGradient6"
       id="radialGradient7"
       cx="960"
       cy="540"
       fx="960"
       fy="540"
       r="250"
       gradientUnits="userSpaceOnUse"
       gradientTransform="translate(320)" /><radialGradient
       inkscape:collect="always"
       xlink:href="#linearGradient6-1"
       id="radialGradient8"
       gradientUnits="userSpaceOnUse"
       cx="960"
       cy="540"
       fx="960"
       fy="540"
       r="250"
       gradientTransform="matrix(0.60152976,0,0,0.16708855,702.53143,525.73057)" /><radialGradient
       inkscape:collect="always"
       xlink:href="#linearGradient11"
       id="radialGradient13"
       cx="960"
       cy="615.95837"
       fx="960"
       fy="615.95837"
       r="94.909729"
       gradientTransform="matrix(1,0,0,0.27777269,320,444.86195)"
       gradientUnits="userSpaceOnUse" /><filter
       inkscape:collect="always"
       style="color-interpolation-filters:sRGB"
       id="filter40"
       x="-0.078322151"
       y="-0.36767245"
       width="1.1599017"
       height="1.726087"><feGaussianBlur
         inkscape:collect="always"
         stdDeviation="4.1579527"
         id="feGaussianBlur40" /></filter></defs><g
     inkscape:label="Layer 1"
     inkscape:groupmode="layer"
     id="layer1"><rect
       style="opacity:1;fill:#1a1a1a;fill-opacity:1;fill-rule:evenodd;stroke-width:5.77349;stroke-linecap:square;stroke-miterlimit:9.5;paint-order:stroke fill markers"
       id="rect1"
       width="2560"
       height="1080"
       x="-5.6843419e-14"
       y="0" /><rect
       style="opacity:1;fill:url(#radialGradient7);fill-opacity:1;fill-rule:evenodd;stroke-width:1.73611;stroke-linecap:square;stroke-miterlimit:9.5;paint-order:stroke fill markers"
       id="rect3"
       width="500"
       height="500"
       x="1030"
       y="290" /><rect
       style="opacity:1;fill:url(#radialGradient8);fill-rule:evenodd;stroke-width:0.550401;stroke-linecap:square;stroke-miterlimit:9.5;paint-order:stroke fill markers"
       id="rect7"
       width="300.76489"
       height="83.544273"
       x="1129.6176"
       y="574.18622" /><rect
       style="opacity:1;fill:url(#radialGradient13);fill-opacity:1;fill-rule:evenodd;stroke-width:0.34737;stroke-linecap:square;stroke-miterlimit:9.5;paint-order:stroke fill markers"
       id="rect9"
       width="189.81946"
       height="52.726662"
       x="1185.0903"
       y="589.59503" /><g
       id="g3"
       transform="matrix(1.5861578,0,0,1.5861578,1200.6921,460.66573)"><g
         id="layer2"
         inkscape:label="palette" /><g
         inkscape:label="Layer 1"
         id="layer1-0"><path
           style="fill:url(#radialGradient22);fill-opacity:1;stroke-width:20;stroke-linecap:square;stroke-miterlimit:9.5;paint-order:stroke fill markers"
           id="path2"
           sodipodi:type="arc"
           sodipodi:cx="50"
           sodipodi:cy="50"
           sodipodi:rx="50"
           sodipodi:ry="50"
           sodipodi:start="6.1815122"
           sodipodi:end="6.0657522"
           sodipodi:open="true"
           sodipodi:arc-type="arc"
           d="M 99.741787,44.925099 A 50,50 0 0 1 56.512103,99.574111 50,50 0 0 1 0.63508085,57.94385 50,50 0 0 1 40.631055,0.88561449 50,50 0 0 1 98.82272,39.213806" /><path
           style="fill:url(#linearGradient32);fill-opacity:1;fill-rule:evenodd;stroke-width:23.0425;stroke-linecap:square;stroke-miterlimit:9.5;paint-order:stroke fill markers"
           d="m 80.704449,52.348038 c -16.518016,0 -39.984368,13.792346 -39.984368,30.284657 0,16.932961 10.531031,16.561213 16.058411,16.561213 21.577528,0 6.781529,-29.701443 23.925957,-46.84587 z"
           id="path11"
           sodipodi:nodetypes="cccc" /><path
           id="path7"
           style="display:inline;fill:#f9f9f9;fill-opacity:1;stroke-width:20;stroke-linecap:square;stroke-miterlimit:9.5;paint-order:stroke fill markers"
           d="M 47.584692,0.05839437 A 50,50 0 0 0 40.631112,0.88573405 50,50 0 0 0 0.63510335,57.94375 50,50 0 0 0 56.512313,99.574284 50,50 0 0 0 99.741715,44.924906 L 98.822909,39.213627 A 50,50 0 0 0 47.584692,0.05839437 Z M 47.76556,3.795634 a 46.258228,46.258228 0 0 1 47.403308,36.225179 l 0.850594,5.283915 A 46.258228,46.258228 0 0 1 56.025004,95.864433 46.258228,46.258228 0 0 1 4.3294515,57.349471 46.258228,46.258228 0 0 1 41.332361,4.5609619 46.258228,46.258228 0 0 1 47.76556,3.795634 Z" /><path
           style="fill:url(#linearGradient36);fill-opacity:1;fill-rule:evenodd;stroke-width:21.3824;stroke-linecap:square;stroke-miterlimit:9.5;paint-order:stroke fill markers"
           d="M 23.437921,19.586962 C 9.6093773,24.65683 -3.5347775,43.005132 1.9475707,57.958755 7.5764003,73.311918 15.521967,72.644988 20.149376,70.948472 45.931029,61.496317 12.395452,46.137144 23.437921,19.586962 Z"
           id="path15"
           sodipodi:nodetypes="cccc" /><path
           style="fill:#ffffff;fill-opacity:1;fill-rule:evenodd;stroke-width:8.95291;stroke-linecap:square;stroke-miterlimit:9.5;paint-order:stroke fill markers"
           d="m 97.532386,40.974828 c 1.66433,8.93663 2.31876,13.61723 1.20878,17.424024 -2.34819,9.685943 -7.9109,12.470197 -10.15705,9.131916 -4.1672,-6.818064 8.48956,-0.635108 8.94827,-26.55594 z"
           id="path20"
           sodipodi:nodetypes="cccc" /><path
           style="fill:url(#linearGradient34);fill-opacity:1;fill-rule:evenodd;stroke-width:28.601;stroke-linecap:square;stroke-miterlimit:9.5;paint-order:stroke fill markers"
           d="m 48.036193,11.675983 c -15.428976,0 -34.972858,21.695223 -34.972858,48.89747 0,27.929054 8.575969,29.271183 13.218181,31.53083 27.177962,13.229167 -15.083782,-69.216047 21.754677,-80.4283 z"
           id="path13"
           sodipodi:nodetypes="cccc" /><path
           style="display:inline;fill:#4b61ac;fill-opacity:0.825637;stroke-width:19.3915;stroke-linecap:square;stroke-miterlimit:9.5;paint-order:stroke fill markers"
           id="path8"
           sodipodi:type="arc"
           sodipodi:cx="50.3638"
           sodipodi:cy="51.521355"
           sodipodi:rx="48.478645"
           sodipodi:ry="48.478645"
           sodipodi:start="6.1815122"
           sodipodi:end="6.0657522"
           sodipodi:open="true"
           sodipodi:arc-type="arc"
           d="M 98.592089,46.600868 A 48.478645,48.478645 0 0 1 56.677758,99.58707 48.478645,48.478645 0 0 1 2.5009119,59.223497 48.478645,48.478645 0 0 1 41.279925,3.9013772 48.478645,48.478645 0 0 1 97.700987,41.063353" /><path
           id="path36"
           style="fill:url(#radialGradient39);stroke-width:18.9151;stroke-linecap:square;stroke-miterlimit:9.5;paint-order:stroke fill markers"
           d="M 49.203516,2.1204555 A 47.287932,47.287932 0 0 0 39.74994,2.954246 47.287932,47.287932 0 0 0 1.9237823,56.917701 47.287932,47.287932 0 0 0 54.769506,96.289823 47.287932,47.287932 0 0 0 95.833944,50.276235 46.100632,46.100632 0 0 1 55.802209,93.925527 46.100632,46.100632 0 0 1 4.2829251,55.541793 46.100632,46.100632 0 0 1 41.159859,2.9336332 46.100632,46.100632 0 0 1 49.203516,2.1204555 Z" /><path
           id="path47"
           style="display:inline;fill:#ffffff;fill-opacity:0.501913;stroke:none;stroke-width:5;stroke-linecap:square;stroke-miterlimit:9.5;stroke-dasharray:none;stroke-dashoffset:145.134;stroke-opacity:1;paint-order:stroke fill markers;filter:url(#filter47)"
           inkscape:label="slackware-logo-text-glow"
           d="m 47.490655,18.427488 c -5.144114,0.126202 -10.550684,1.022877 -14.789793,4.135737 -4.05092,2.922218 -6.406309,8.269011 -5.222668,13.205371 0.782217,3.588051 3.638914,6.349429 6.857025,7.900109 4.650212,2.280558 9.901784,3.014411 15.035456,3.031636 3.658384,0.184365 7.534164,0.650961 10.621933,2.787694 1.641381,1.147452 2.789952,3.117035 2.511719,5.160156 -0.05447,2.483977 -1.749841,4.632781 -3.88394,5.761316 -3.223202,1.767665 -7.05058,2.274929 -10.581294,2.377662 -3.953921,0.142292 -8.053209,-1.124647 -10.880036,-3.973032 -1.267923,-1.275828 -2.404647,-2.774417 -3.014853,-4.469035 0.03204,-1.562414 -1.129634,-2.999968 -2.668957,-3.285803 -1.516525,-0.28863 -3.261591,-0.2345 -4.554904,0.698267 -0.927517,0.667722 -1.050056,1.87461 -0.957032,2.923828 0.02485,3.592525 -0.04895,7.188802 0.03542,10.779096 0.08688,1.751245 1.418494,3.309573 3.144048,3.645734 1.52119,0.300093 3.300894,0.32157 4.59592,-0.653346 0.72197,-0.569996 1.118061,-1.473086 1.193359,-2.376953 3.935045,2.032814 8.363217,3.064787 12.78832,3.053893 5.242242,0.134519 10.646042,-0.44392 15.446223,-2.678252 3.419436,-1.575058 6.377248,-4.46809 7.356792,-8.179964 0.538907,-2.020111 0.670127,-4.160233 0.410619,-6.232786 -0.576869,-3.996527 -3.335051,-7.429688 -6.844142,-9.310418 -4.880676,-2.670446 -10.579682,-3.181402 -16.04674,-3.198654 -3.315435,-0.201898 -6.785631,-0.715095 -9.614978,-2.574913 -1.608573,-1.032685 -2.611404,-2.964655 -2.290621,-4.880746 0.186343,-2.700482 2.13186,-5.026615 4.584468,-6.048683 3.106775,-1.357117 6.60109,-1.542397 9.94198,-1.301863 3.925564,0.33145 7.918643,2.259879 9.911216,5.780516 0.524726,0.742007 0.395089,1.766457 1.097098,2.417573 1.456184,1.488515 3.903758,1.693079 5.751953,0.865235 0.953055,-0.392769 1.446077,-1.43672 1.289062,-2.432032 -0.01482,-3.380921 0.02932,-6.765364 -0.02148,-10.14414 -0.328179,-1.486179 -1.945348,-2.144552 -3.277466,-2.474127 -1.644905,-0.340294 -3.701367,0.01909 -4.677612,1.515142 -0.09695,0.577966 -0.460031,0.187369 -0.797096,0.05154 -3.888799,-1.692553 -8.266306,-1.899059 -12.448998,-1.875759 z M 17.051202,60.915769 c -0.0069,5.307943 -0.01579,10.615884 -0.02148,15.923828 20.926432,0 41.852864,0 62.779297,0 0,-0.758464 0,-1.516927 0,-2.275391 -20.238933,0 -40.477865,0 -60.716797,0 0,-4.725911 0,-9.451823 0,-14.177734 -0.680339,0 -1.360677,0 -2.041016,0 0,0.176432 0,0.352865 0,0.529297 z" /><path
           id="path1"
           style="display:inline;fill:#0f131c;fill-opacity:1;stroke:none;stroke-width:5;stroke-linecap:square;stroke-miterlimit:9.5;stroke-dasharray:none;stroke-dashoffset:145.134;stroke-opacity:1;paint-order:stroke fill markers"
           d="m 46.908531,16.576317 c -21.509617,0 -20.784261,14.140739 -20.784261,14.140739 0,12.884523 19.753316,13.040548 19.753316,13.040548 16.767094,0 15.587679,8.096146 15.587679,8.096146 0,9.4824 -15.557707,9.092985 -15.557707,9.092985 -10.728546,0 -13.86582,-8.760705 -13.86582,-8.760705 0,-3.445908 -3.655074,-3.111438 -3.655074,-3.111438 -3.628186,0 -3.474206,2.235522 -3.474206,2.235522 V 62.4376 c 0,4.421677 4.501534,3.93051 4.501534,3.93051 4.004103,0 3.396175,-3.567224 3.396175,-3.567224 0,0 5.474732,3.396175 12.688631,3.396175 0,0 23.432678,1.816663 23.432678,-14.204818 0,0 1.727776,-14.290084 -21.852413,-14.290084 -2.299037,0 -13.093774,-0.724041 -13.093774,-7.241418 0,-2.410582 1.074137,-8.736418 13.093774,-8.736418 10.298102,0 12.816789,7.048665 12.816789,7.048665 0,0 -0.06684,2.371926 3.588411,2.606043 0,0 3.050703,0.02587 3.118673,-1.794206 V 19.075389 c -0.03021,-1.472673 -2.708469,-2.299284 -3.65249,-2.306836 -3.602385,0 -3.653007,2.306836 -3.653007,2.306836 0,0 -2.975803,-2.499072 -12.388908,-2.499072 z M 15.999307,58.544815 15.978119,73.940257 H 77.699933 V 72.722761 H 16.982192 V 58.544815 Z"
           transform="translate(1.580499,2.370847)"
           inkscape:label="slackware-logo-text"
           sodipodi:nodetypes="scccccccsccccscsccccccsccccccc" /><path
           id="path48"
           style="display:inline;fill:url(#pattern55);stroke:none;stroke-width:5;stroke-linecap:square;stroke-miterlimit:9.5;stroke-dasharray:none;stroke-dashoffset:145.134;stroke-opacity:1;paint-order:stroke fill markers"
           inkscape:label="slackware-logo-text-inner-background"
           d="m 46.091797,20.089844 c -3.702187,0.211235 -7.461561,0.91182 -10.742188,2.71289 -1.117151,0.627382 -2.377064,1.499915 -3.334727,2.493472 -3.135215,3.181031 -4.308889,8.482124 -2.00707,12.455747 1.984282,3.355118 5.793692,5.161006 9.382166,6.120261 5.372445,1.474207 11.069559,0.938258 16.512763,2.124633 3.088055,0.758217 6.261942,2.443868 7.649993,5.448465 1.557059,3.742205 -0.353789,8.411121 -3.961403,10.172151 -3.630196,2.161023 -7.961748,2.615557 -12.101067,2.738442 -4.945268,-0.04442 -10.104506,-2.099794 -13.007051,-6.243698 -1.079596,-1.439628 -1.685373,-3.161381 -2.351471,-4.804634 -1.006929,-1.126954 -2.899659,-1.071902 -4.077054,-0.258745 -0.900218,0.949924 -0.355704,2.342154 -0.462891,3.498047 0.03082,3.225783 -0.288579,6.504492 0.326139,9.68797 0.871757,1.697951 3.435994,1.947192 4.847689,0.808124 0.644641,-0.582043 0.407378,-1.682747 1.263672,-2.101563 0.984986,-0.612322 2.162765,-0.158936 3.07116,0.363464 4.709442,2.076863 9.977352,2.521801 15.01094,2.158733 4.104208,-0.35759 8.328154,-1.161771 11.932219,-3.370403 2.654412,-1.561754 4.620311,-4.240269 5.190187,-7.279317 C 70.102312,52.808454 68.810612,48.275264 65.539176,45.688547 61.776505,42.551167 56.70342,41.593616 51.970462,41.28359 47.402551,41.011548 42.564581,41.062603 38.4375,38.798828 c -2.110162,-1.129272 -3.827275,-3.248952 -3.890697,-5.71811 -0.279994,-3.728228 2.346267,-7.229213 5.743962,-8.561413 3.267925,-1.377556 6.908623,-1.596485 10.407962,-1.349913 4.262236,0.400941 8.639583,2.373323 10.937992,6.127483 0.718503,1.072224 0.900777,2.673878 2.259256,3.16114 1.03818,0.39606 2.289786,0.275457 3.232931,-0.282234 -0.06761,-2.785528 0.007,-5.597952 -0.03315,-8.394889 -0.0053,-0.857493 -0.02456,-1.714871 -0.05279,-2.571908 -1.762229,-1.463256 -4.766199,-1.170886 -6.066407,0.771485 -1.284624,0.392187 -2.345777,-0.652973 -3.550211,-0.869812 -3.682206,-1.129981 -7.513916,-1.02951 -11.334554,-1.020813 z" /><path
           id="path55"
           style="display:inline;opacity:1;fill:#233881;fill-opacity:1;stroke:none;stroke-width:5;stroke-linecap:square;stroke-miterlimit:9.5;stroke-dasharray:none;stroke-dashoffset:145.134;stroke-opacity:1;paint-order:stroke fill markers;filter:url(#filter56)"
           inkscape:label="slackware-logo-text-inner-glow"
           d="m 46.634766,20.578125 c -4.768237,0.211528 -9.802648,1.202536 -13.535756,4.375129 -3.155854,2.797432 -4.792485,7.576438 -3.143932,11.593621 1.422894,3.344534 4.803219,5.304636 8.12238,6.37096 4.366854,1.524213 9.037556,1.588315 13.604101,1.83015 3.917167,0.351655 8.057786,1.382942 10.932034,4.231276 2.420798,2.590259 2.699918,6.796282 0.785307,9.753457 -1.652034,2.743712 -4.659518,4.292341 -7.667735,5.083554 -3.926425,1.102511 -8.11289,1.385322 -12.137069,0.697078 -4.97268,-1.030942 -9.662236,-4.596705 -11.410922,-9.507406 -0.08963,-0.819773 -0.422244,-1.919585 -1.429268,-1.914147 -0.871016,-0.141043 -2.002889,-0.134386 -2.597793,0.55242 -0.217194,1.702305 0.03521,3.420547 -0.05966,5.13075 -0.03141,2.453661 -0.12732,4.921804 0.235578,7.357845 0.92804,1.243346 2.87658,1.366599 4.105469,0.587891 0.679743,-0.843966 0.398902,-2.008968 0.653759,-2.997802 0.05708,-0.546482 -0.01038,-1.324489 0.660642,-0.633602 4.19936,2.436067 8.992181,3.919389 13.868597,3.929588 4.680365,0.07493 9.488143,-0.328709 13.85222,-2.135788 2.94694,-1.232749 5.717246,-3.406707 6.774011,-6.523279 1.299603,-3.644217 0.878544,-8.098385 -1.780779,-11.045155 -2.915395,-3.298696 -7.353805,-4.677751 -11.589626,-5.240002 -3.410314,-0.4969 -6.943592,-0.292871 -10.304058,-0.769975 -3.192515,-0.482687 -6.63102,-1.5969 -8.95135,-4.028047 -2.350744,-2.799627 -2.050205,-7.16949 0.15975,-9.962623 2.123564,-2.869373 5.718427,-4.1995 9.148107,-4.560712 4.800416,-0.667065 10.193971,-0.08437 14.18792,2.966717 1.862029,1.421288 3.350592,3.37392 4.053229,5.621774 0.850422,1.009271 2.368876,0.967727 3.486328,0.470703 -0.197838,-3.442278 0.106325,-6.894755 -0.173828,-10.333984 -1.080479,-0.795333 -2.766725,-1.08767 -3.847656,-0.16211 -0.441197,0.748531 -1.152928,1.449196 -2.096,1.319875 -1.518163,-0.134372 -2.800359,-1.137018 -4.315882,-1.327438 -3.133141,-0.748217 -6.383732,-0.78676 -9.588118,-0.730718 z" /><path
           id="path56"
           style="display:inline;opacity:0.288908;fill:#ffffff;fill-opacity:1;stroke:none;stroke-width:5;stroke-linecap:square;stroke-miterlimit:9.5;stroke-dasharray:none;stroke-dashoffset:145.134;stroke-opacity:1;paint-order:stroke fill markers;filter:url(#filter57)"
           inkscape:label="slackware-logo-text-inner-glow-2"
           d="m 46.517578,21.111328 c -2.696343,0.141026 -5.274305,0.479238 -7.872914,1.348439 -3.566808,1.182539 -6.968246,3.664066 -8.214424,7.339327 -0.705183,1.938476 -0.817151,4.103862 -0.182992,6.010291 1.007184,3.16053 4.021998,5.097774 6.961358,6.246401 3.521008,1.313824 7.256301,1.903529 10.966402,1.954443 4.505571,0.162445 9.272768,0.583114 13.120277,3.168327 2.507012,1.636698 4.167419,4.604407 3.877556,7.631994 -0.181478,3.217196 -2.173893,6.170842 -4.96514,7.730365 -3.715094,2.123869 -8.077961,2.818074 -12.30731,2.874019 -3.807464,0.12467 -7.670363,-0.926192 -10.761961,-3.182071 -2.349097,-1.694107 -4.303582,-4.022366 -5.372266,-6.726468 -0.300762,-0.539347 -0.102813,-1.288357 -0.553273,-1.723192 -0.719748,-0.337221 -1.606053,-0.26833 -2.359375,-0.08008 -0.541928,0.23064 -0.124782,0.939895 -0.240835,1.380309 0.07752,3.5648 -0.177338,7.152271 0.149038,10.701722 0.582512,1.00957 1.983545,0.955387 2.976261,0.747604 0.847691,-0.242866 0.485583,-1.231722 0.470349,-1.869975 -0.156672,-1.203422 -0.307374,-2.407054 -0.436845,-3.613957 2.448184,1.713295 5.031699,3.193708 7.925245,4.151808 2.567312,0.884707 5.265293,1.258388 7.903615,1.282192 4.553844,0.105581 9.165464,-0.281133 13.429233,-1.990589 2.923394,-1.133248 5.645653,-3.243644 6.739683,-6.272089 0.784467,-2.447325 0.936998,-5.198699 0.05702,-7.643008 -1.213423,-3.305243 -4.252443,-5.489209 -7.500631,-6.660945 -3.695001,-1.367773 -7.650801,-1.645591 -11.529357,-1.735686 -3.883225,-0.09153 -7.884451,-0.684546 -11.283582,-2.676639 -2.202808,-1.252583 -3.851325,-3.525324 -4.045561,-6.087716 -0.345437,-3.928639 2.068621,-7.804016 5.566464,-9.525242 4.355831,-2.059596 9.384983,-2.285952 14.072885,-1.463869 4.316853,0.913582 8.465046,3.646454 10.254828,7.785846 0.144009,0.536399 0.309353,1.265734 0.989323,1.286864 0.553359,0.161344 1.160211,0.165573 1.704037,-0.03491 0.0017,-3.2111 0.0552,-6.423963 -0.0293,-9.634766 -0.826695,-0.632912 -2.107714,-0.774879 -2.988282,-0.207031 -0.06997,0.725292 -0.187766,1.534208 -0.877978,1.947172 -0.800688,0.585136 -1.929014,0.300197 -2.572563,-0.3819 -2.306889,-1.520765 -5.169024,-1.687892 -7.835488,-1.991286 -1.740573,-0.135769 -3.489311,-0.145719 -5.233502,-0.08571 z" /><path
           id="path16"
           style="fill:url(#radialGradient18);fill-opacity:0.439521;stroke-width:18.3302;stroke-linecap:square;stroke-miterlimit:9.5;paint-order:stroke fill markers"
           d="M 49.183102,2.8316756 A 45.825364,45.825364 0 0 0 42.809945,3.5897972 45.825364,45.825364 0 0 0 6.153398,55.883917 45.825364,45.825364 0 0 0 57.364936,94.038332 45.825364,45.825364 0 0 0 96.985194,43.952426 l -0.842124,-5.2344 A 45.825364,45.825364 0 0 0 49.183102,2.8316756 Z m 4.811763,3.3511708 A 38.029943,38.029943 0 0 1 92.966203,35.964322 l 0.69932,4.343975 A 38.029943,38.029943 0 0 1 60.784883,81.874259 38.029943,38.029943 0 0 1 18.28492,50.210079 38.029943,38.029943 0 0 1 48.705864,6.8118144 38.029943,38.029943 0 0 1 53.994865,6.1828464 Z" /><path
           id="path12"
           style="display:inline;fill:#ffffff;fill-opacity:0.218473;stroke-width:20;stroke-linecap:square;stroke-miterlimit:9.5;paint-order:stroke fill markers"
           d="M 47.584692,0.05839437 A 50,50 0 0 0 40.631112,0.88573405 50,50 0 0 0 0.63510335,57.94375 50,50 0 0 0 56.512313,99.574284 50,50 0 0 0 99.741715,44.924906 L 98.822909,39.213627 A 50,50 0 0 0 47.584692,0.05839437 Z M 47.76556,3.795634 a 46.258228,46.258228 0 0 1 47.403308,36.225179 l 0.850594,5.283915 A 46.258228,46.258228 0 0 1 56.025004,95.864433 46.258228,46.258228 0 0 1 4.3294515,57.349471 46.258228,46.258228 0 0 1 41.332361,4.5609619 46.258228,46.258228 0 0 1 47.76556,3.795634 Z" /><path
           id="path5"
           style="fill:url(#linearGradient15);stroke-width:17.5415;stroke-linecap:square;stroke-miterlimit:9.5;paint-order:stroke fill markers"
           d="M 49.320678,0.7012212 C 47.231243,0.7574096 45.154707,1.0361317 43.101484,1.4128111 23.917326,4.9319355 5.5140861,19.649341 7.0628792,38.670606 9.3745244,58.057495 30.278518,20.99196 51.760044,21.180843 80.653416,21.434899 94.427655,66.163291 96.636622,40.084038 97.718542,24.504294 77.202308,-0.0498586 49.320678,0.7012212 Z"
           sodipodi:nodetypes="cccscc" /><path
           id="path24"
           style="fill:url(#linearGradient26);fill-opacity:1;stroke-width:20;stroke-linecap:square;stroke-miterlimit:9.5;paint-order:stroke fill markers"
           d="M 11.422559,18.263485 A 50,50 0 0 0 0.63510335,57.976823 50,50 0 0 0 56.512313,99.607357 50,50 0 0 0 99.741715,44.957979 L 98.822909,39.2467 A 50,50 0 0 0 89.74491,19.764168 49.338543,49.338543 0 0 1 98.176953,38.330994 l 0.906922,5.635831 A 49.338543,49.338543 0 0 1 56.426013,97.89325 49.338543,49.338543 0 0 1 1.2882935,56.813587 49.338543,49.338543 0 0 1 11.422559,18.263485 Z" /><path
           style="fill:url(#radialGradient28);fill-opacity:1;fill-rule:evenodd;stroke-width:34.7901;stroke-linecap:square;stroke-miterlimit:9.5;paint-order:stroke fill markers"
           id="path27"
           sodipodi:type="arc"
           sodipodi:cx="29.125616"
           sodipodi:cy="24.148529"
           sodipodi:rx="7.0186963"
           sodipodi:ry="11.736181"
           sodipodi:start="6.1815122"
           sodipodi:end="6.0657522"
           sodipodi:open="true"
           sodipodi:arc-type="arc"
           d="m 36.108066,22.95733 a 7.0186963,11.736181 0 0 1 -6.068321,12.827414 7.0186963,11.736181 0 0 1 -7.843676,-9.771606 7.0186963,11.736181 0 0 1 5.614391,-13.392916 7.0186963,11.736181 0 0 1 8.168593,8.996532"
           transform="rotate(23.861853)" /><path
           style="fill:url(#radialGradient29);fill-opacity:1;fill-rule:evenodd;stroke-width:42.3177;stroke-linecap:square;stroke-miterlimit:9.5;paint-order:stroke fill markers"
           id="path28"
           sodipodi:type="arc"
           sodipodi:cx="33.181122"
           sodipodi:cy="-4.1245794"
           sodipodi:rx="8.5353661"
           sodipodi:ry="14.27889"
           sodipodi:start="6.1815122"
           sodipodi:end="6.0657522"
           sodipodi:open="true"
           sodipodi:arc-type="arc"
           d="M 41.672409,-5.5738585 A 8.5353661,14.27889 0 0 1 34.292785,10.032686 8.5353661,14.27889 0 0 1 24.754169,-1.8559922 8.5353661,14.27889 0 0 1 31.581774,-18.150557 8.5353661,14.27889 0 0 1 41.515518,-7.2048769"
           transform="matrix(0.69083523,0.72301223,-0.72891761,0.68460143,0,0)" /><path
           style="fill:#415396;fill-opacity:0.285616;fill-rule:evenodd;stroke-width:21.3824;stroke-linecap:square;stroke-miterlimit:9.5;paint-order:stroke fill markers"
           d="M 88.081871,63.252687 C 93.914685,43.629352 95.285017,31.745648 84.195995,18.34042 73.772953,5.740279 59.230207,9.6679993 62.127775,10.924856 86.205503,22.201459 88.503419,30.581844 88.081871,63.252687 Z"
           id="path39"
           sodipodi:nodetypes="cccc" /><path
           id="path44"
           style="fill:url(#radialGradient45);fill-opacity:1;stroke-width:4.62566;stroke-linecap:square;stroke-miterlimit:9.5;paint-order:stroke fill markers"
           d="m 114.93806,-13.076095 a 6.674479,20.035938 0 0 0 -4.4353,22.1466401 6.674479,20.035938 0 0 0 5.6646,16.6594269 50,50 0 0 0 0.40604,-39.81757 6.674479,20.035938 0 0 0 -0.73179,0.294045 6.674479,20.035938 0 0 0 -0.90355,0.717458 z"
           transform="rotate(40.65847)" /></g></g><text
       xml:space="preserve"
       style="font-style:normal;font-variant:normal;font-weight:normal;font-stretch:normal;font-size:22.5778px;font-family:Rockwell;-inkscape-font-specification:Rockwell;text-align:center;letter-spacing:0.846667px;writing-mode:lr-tb;direction:rtl;text-anchor:middle;fill:#ffffff;fill-opacity:1;fill-rule:evenodd;stroke-width:1;stroke-linecap:square;stroke-miterlimit:9.5;stroke-dasharray:none;paint-order:stroke fill markers"
       x="59.18795"
       y="-46.65094"
       id="text7"><tspan
         sodipodi:role="line"
         id="tspan6"
         style="font-style:normal;font-variant:normal;font-weight:normal;font-stretch:normal;font-family:'Courier New';-inkscape-font-specification:'Courier New';letter-spacing:0px;writing-mode:lr-tb;direction:ltr;baseline-shift:baseline;fill:#ffffff;stroke:#ffffff;stroke-width:1;stroke-dasharray:none;stroke-opacity:1"
         x="59.187954"
         y="-46.65094">slackware</tspan><tspan
         sodipodi:role="line"
         style="font-style:normal;font-variant:normal;font-weight:normal;font-stretch:normal;font-size:11.2889px;font-family:'Courier New';-inkscape-font-specification:'Courier New';letter-spacing:0px;fill:#ffffff;stroke:#ffffff;stroke-width:1;stroke-dasharray:none;stroke-opacity:1"
         x="59.18795"
         y="-18.42869"
         id="tspan7" /></text><text
       xml:space="preserve"
       style="font-style:normal;font-variant:normal;font-weight:normal;font-stretch:normal;font-size:8.46667px;font-family:'Courier New';-inkscape-font-specification:'Courier New';text-align:end;letter-spacing:5.68854px;writing-mode:lr-tb;direction:ltr;text-anchor:end;fill:#ffffff;fill-rule:evenodd;stroke:#ffffff;stroke-width:0.34;stroke-linecap:square;stroke-miterlimit:9.5;stroke-dasharray:none;stroke-opacity:1;paint-order:stroke fill markers"
       x="116.16721"
       y="-36.300617"
       id="text8"><tspan
         sodipodi:role="line"
         id="tspan8"
         style="font-size:8.46667px;letter-spacing:5.68854px;stroke-width:0.34;stroke-dasharray:none"
         x="121.85575"
         y="-36.300617">linux</tspan></text><path
       d="m -4.9779907,-48.396012 v 9.673554 H 67.557633 v -0.69 H -4.2881104 v -8.983571 z"
       style="fill:#f9f9f9;fill-rule:evenodd;stroke-width:0.251392;stroke-linecap:square;stroke-miterlimit:9.5;paint-order:stroke fill markers"
       id="path9"
       sodipodi:nodetypes="ccccccc" /><g
       id="g21"
       transform="matrix(2.40947,0,0,2.40947,1142.7348,652.44037)"
       style="display:inline;mix-blend-mode:normal;filter:url(#filter40)"><path
         id="text20"
         style="font-style:normal;font-variant:normal;font-weight:normal;font-stretch:normal;font-size:22.5778px;font-family:Rockwell;-inkscape-font-specification:Rockwell;text-align:center;letter-spacing:0.846667px;writing-mode:lr-tb;direction:rtl;text-anchor:middle;fill:#1a1a1a;fill-opacity:1;fill-rule:evenodd;stroke:#1a1a1a;stroke-width:0.830058;stroke-linecap:square;stroke-miterlimit:9.5;stroke-dasharray:none;stroke-opacity:1;paint-order:stroke fill markers"
         d="m 59.048828,-1.5039062 c -1.809071,0.2485865 -3.771495,-0.3914473 -5.467135,0.4766254 -1.683825,1.05308023 -1.085156,4.0318379 0.838229,4.4081402 -0.02295,2.6967219 0.03744,5.4265364 -0.04883,8.1347656 -0.582591,0.154857 -1.077672,0.566006 -1.402344,1.066406 C 53.09989,11.335778 52.078202,10.147444 50.871094,9.9414062 52.256919,9.397447 52.542254,7.6965291 52.425411,6.3786071 52.366429,5.4955591 52.570584,4.4933292 51.882963,3.7906028 51.208734,2.9316391 49.90156,2.489012 48.912109,3.0625 47.091674,2.3549165 44.957692,2.2404192 43.130859,2.9902344 39.887818,4.3681012 37.880031,8.3230308 39.052734,11.71875 c 0.915358,3.306881 4.556234,5.508371 7.915646,4.881735 2.175704,-0.240732 4.396873,-1.242148 5.62537,-3.121969 -0.387511,1.497815 1.084662,2.801828 2.499928,2.833829 1.09535,0.04954 2.196519,-0.0084 3.289134,-0.0057 0.63135,-0.02536 1.0678,-0.634342 0.896485,-1.241016 -0.07421,-0.72386 0.165281,0.138567 0.397555,0.320162 0.579426,0.808189 1.619425,1.020441 2.55126,0.892804 1.359404,-0.0044 2.884864,0.277739 4.101966,-0.47195 1.327824,-0.984566 1.275074,-3.376075 -0.322266,-4.066407 -0.713989,-0.333017 -1.712982,-0.147491 -2.159262,-0.935261 -0.614043,-0.65365 -1.273985,-1.2631821 -1.871988,-1.9319261 0.642933,-0.5161974 1.225187,-1.2345672 2.120561,-1.2039721 0.479523,-0.090978 0.97134,-0.2379601 1.346236,-0.563606 0.295668,0.2241416 0.744874,0.3770076 0.658588,0.8280481 0.690661,3.0813981 1.381046,6.1628581 2.071881,9.2442171 0.480146,-0.750292 1.370978,-0.915294 2.198243,-0.872121 0.960745,0.06728 1.91307,-0.477706 2.20525,-1.421969 0.205122,-0.892474 0.364851,0.392919 0.546979,0.720658 0.255272,0.309987 0.219839,1.596683 0.695976,1.162029 1.026577,-0.870662 2.73268,-0.01639 3.598701,-1.199641 1.141524,-2.556286 1.256086,-5.440256 2.100554,-8.0998931 0.392318,-0.1741545 0.720596,-0.6037531 0.931641,-0.8808594 0.159571,0.4567361 0.640126,0.8614632 0.888672,1.1367187 -1.941727,1.2626997 -2.796911,3.9714838 -1.751838,6.0746178 0.875131,1.986524 3.135079,2.991726 5.223606,2.868557 1.066021,-0.01954 2.117099,-0.287285 3.098544,-0.695128 1.120887,0.65975 2.470644,0.27516 3.689855,0.308514 0.708059,-0.119381 1.351804,-0.562751 1.739833,-1.163983 0.681672,1.131137 2.148777,1.453095 3.364046,1.179131 2.521468,-0.06761 5.09448,0.256674 7.5715,-0.337334 1.86012,-0.971915 1.2035,-4.26051 -0.85889,-4.499544 -0.90473,-0.02926 -1.81316,-0.0027 -2.71923,-0.01608 0.0728,-0.75203 -0.17115,-1.6075861 0.13388,-2.2943251 0.6717,-0.5579415 1.27621,-1.2555251 2.12393,-1.5494247 0.84861,0.7347175 2.18969,1.0983252 3.19922,0.4765626 -0.76774,3.4060862 1.52131,6.9829192 4.73663,8.1266262 2.30384,0.92289 4.92268,0.452334 7.12969,-0.517961 1.13151,-0.567486 2.32519,-1.575776 2.38589,-2.925846 -0.021,-0.440015 -0.20817,-0.860825 -0.41823,-1.2336 0.7084,-0.769901 0.36899,-1.9261117 0.34668,-2.8616733 -0.43929,-3.1612079 -3.14023,-6.0205992 -6.41585,-6.1364751 -2.52632,-0.3274922 -5.16505,0.8291205 -6.58286,2.9577226 -0.17145,0.2155933 -0.16704,-0.5420067 -0.35773,-0.7251997 -0.5862,-1.1416082 -1.83826,-1.7887256 -3.03819,-2.0788729 -1.24124,-0.2578028 -2.55703,0.1314243 -3.62392,0.6921542 -0.866836,-0.9188215 -2.244106,-0.4335053 -3.349998,-0.5828775 -1.350599,-0.069457 -3.093257,0.4229579 -3.410452,1.9311963 -0.280864,1.4043193 0.851069,2.9135296 2.278024,3.0364468 -0.03433,1.2212371 0.01418,2.4426806 0.002,3.6640626 -0.933695,0.05849 -1.966277,0.384115 -2.490235,1.207031 -0.34841,-0.53912 -0.904899,-0.941308 -1.521484,-1.115234 -0.04301,-2.2498362 0.43509,-4.7336699 -0.80167,-6.7624828 C 89.612736,2.732749 86.862052,2.122529 84.56461,2.6887874 83.168996,2.9016956 81.655686,3.2468648 80.675781,4.3457031 80.253777,3.1157165 78.716482,2.7312482 77.51212,2.7959711 76.383811,2.9088334 75.092937,2.5084396 74.131461,3.3112142 73.551172,3.7562285 73.173904,4.462905 73.125,5.1933594 72.835094,5.1660846 72.254381,5.4703284 72.335253,4.9886628 72.174363,3.5539963 70.645494,2.6045764 69.270717,2.8140423 68.002976,2.8156755 66.476196,2.6316119 65.439453,3.4140625 64.177643,2.4179352 62.48063,2.8982999 61.009208,2.8063239 60.407951,2.84052 59.793103,2.9687937 59.277344,3.2929688 c 0,-1.6022136 0,-3.20442713 0,-4.8066407 -0.07617,0.00326 -0.152344,0.00651 -0.228516,0.00977 z m -38.294922,0.011719 c -2.243661,0.1978536 -4.576401,-0.321487 -6.757812,0.359375 -1.795207,0.93327729 -1.372326,4.1017526 0.646529,4.4549105 0.482455,0.1100673 0.981737,0.070269 1.472611,0.080246 0,2.6783854 0,5.3567708 0,8.0351557 -1.413226,-0.08986 -3.221122,-0.04831 -4.013796,1.348034 -0.919064,1.726355 0.950636,4.064466 2.838015,3.511341 2.993141,-0.06258 6.013401,0.20642 8.984375,-0.246094 1.948758,-0.818965 1.537184,-4.187348 -0.527987,-4.555472 -0.802569,-0.05448 -1.612016,-0.04025 -2.417325,-0.04804 0,-4.315105 0,-8.6302092 0,-12.9453134 -0.07487,0.00195 -0.14974,0.00391 -0.22461,0.00586 z M 4.9472656,2.4785156 c -2.3578514,-0.085081 -5.01174849,1.1007028 -5.78515622,3.4765625 -0.39676688,1.202684 -0.0301629,2.5438438 0.71679687,3.53125 -1.13227015,0.5867039 -1.60057755,1.9879359 -1.36946775,3.1896519 -0.1612616,1.391637 0.3397445,3.196426 1.87809502,3.56307 0.74037428,0.255691 1.49668328,-0.363107 2.19499828,0.0734 2.8226904,0.884853 6.3589659,0.251956 8.1619422,-2.249204 1.040182,-1.609438 0.857911,-3.898098 -0.40463,-5.3347284 C 11.23623,7.5593436 11.009751,5.9700734 10.869029,4.6095002 10.50448,3.3283292 8.9886155,2.4721452 7.7128906,2.9199219 6.8086028,2.6825304 5.8866059,2.4731193 4.9472656,2.4785156 Z m 26.8632814,0.00586 c -1.915321,0.2604278 -4.130594,0.4345127 -5.476563,2.0078125 -0.697599,1.077492 -0.09051,2.5612723 0.8125,3.2285156 -1.975491,1.2822725 -2.825792,4.0639453 -1.704379,6.1768783 0.941755,1.990346 3.257598,2.951747 5.373042,2.75736 0.998457,-0.05003 1.976402,-0.31327 2.903603,-0.678379 1.08873,0.650691 2.405684,0.256969 3.594987,0.326963 1.624545,-0.167788 2.90334,-2.250128 1.841017,-3.660981 C 38.813469,12.092098 38.24907,11.689359 37.628906,11.513672 37.584565,9.2280825 38.083407,6.6831729 36.757812,4.6484375 35.628395,3.125997 33.66314,2.4113912 31.810547,2.4843756 Z m 38.767578,4.6835938 c -0.04388,0.445357 -0.288852,-0.2507321 0,0 z m 4.480469,0.080078 c -0.108048,0.4684852 -0.580426,-0.4284569 0,0 z m -29.304688,0.089844 c 0.795018,-0.029087 1.895462,0.2431665 1.921875,1.2089844 0.236915,0.8908967 1.368073,1.4246156 2.011719,1.5429692 -1.28637,0.854863 -2.714366,2.085593 -4.379434,1.644679 C 43.933028,11.490472 43.187812,9.7942274 43.871094,8.6015625 44.208612,7.8841164 44.953056,7.3583753 45.753906,7.3378914 Z M 31.953125,11.337891 c 0.176824,0.08777 -0.705751,0.347213 -0.943359,0.40625 -0.265973,0.05556 -0.83164,0.112203 -0.94336,-0.06445 0.56411,-0.320312 1.260879,-0.266121 1.886719,-0.341797 z m 54.328125,0.01563 c -0.633175,0.278047 -1.359131,0.594998 -2.056641,0.371093 0.599648,-0.39369 1.37159,-0.339652 2.056641,-0.371093 z m -82.7695312,0.07031 c 0.7412179,0.09892 1.5408146,0.107662 2.2402343,0.302734 -0.7559638,0.127296 -1.6297304,0.138976 -2.2792969,-0.308593 z M 114.21094,11.761719 c -0.39338,0.06297 -1.47401,-0.02144 -0.47461,-0.0029 0.14846,-2.42e-4 0.3726,-0.0025 0.47461,0.0029 z" /><path
         id="text21"
         style="font-style:normal;font-variant:normal;font-weight:normal;font-stretch:normal;font-size:8.46667px;font-family:'Courier New';-inkscape-font-specification:'Courier New';text-align:end;letter-spacing:5.68854px;writing-mode:lr-tb;direction:ltr;text-anchor:end;fill:#1a1a1a;fill-opacity:1;fill-rule:evenodd;stroke:#1a1a1a;stroke-width:0.34;stroke-linecap:square;stroke-miterlimit:9.5;stroke-dasharray:none;stroke-opacity:1;paint-order:stroke fill markers"
         d="m 82.507812,17.287109 c -1.079566,0.121839 -2.545663,-0.177384 -3.195312,0.953125 -0.451035,0.368133 -0.05118,1.162092 -0.638649,1.401029 -0.881082,0.766976 -0.922715,2.260801 -0.166039,3.116549 -1.249648,0.834711 -1.21365,3.13251 0.330675,3.620288 1.376854,0.572198 2.900496,0.150461 4.33461,0.286649 1.652273,-0.182491 2.603664,-2.626171 1.190415,-3.70288 -0.282921,-0.363769 -1.092441,-0.296418 -0.896753,-0.922396 -0.03185,-1.314047 0.05745,-2.636693 0.105507,-3.941817 -0.137365,-0.458165 -0.582719,-0.809829 -1.064454,-0.810547 z m -11.853515,0.246094 c -1.141592,-0.07376 -2.698219,-0.08895 -3.239709,1.153046 -0.489422,1.030988 -0.07228,2.45599 0.985803,2.94461 -0.02352,0.335983 0.196787,0.857465 -0.286867,0.917451 -1.289878,0.579214 -1.811451,2.590538 -0.577259,3.500872 1.166106,1.014163 2.804877,0.447814 4.190297,0.655896 1.298986,0.01041 2.805345,-1.04268 2.536259,-2.477193 -0.126671,-0.83099 -0.787655,-1.528914 -1.577274,-1.782573 0.02816,-1.395719 -0.0095,-2.791763 0.01758,-4.1875 -0.492801,-0.591371 -1.295165,-0.865666 -2.048828,-0.724609 z m 35.267583,1.458985 c -1.75345,0.2518 -3.52738,0.08387 -5.28444,0.155525 -1.628862,0.112958 -2.56512,2.387548 -1.362049,3.549553 0.26544,0.636196 0.01327,1.471041 0.36914,2.128906 0.471369,1.439379 2.131749,2.300365 3.582029,1.867187 1.07011,-0.0378 2.41618,0.183848 3.13516,-0.825791 0.65213,-0.739034 0.70064,-1.917395 0.0675,-2.673164 -0.20335,-0.930962 0.0597,-1.892454 -0.0875,-2.831123 0.0131,-0.441372 0.24692,-1.300328 -0.41992,-1.371093 z m -13.638677,0.01172 c -1.086649,0.270082 -2.373383,-0.189388 -3.3125,0.576172 -0.948891,0.724216 -1.153996,2.24666 -0.320312,3.126953 -0.04529,0.6336 -0.75527,1.062988 -0.613282,1.775391 -0.006,1.287547 1.24904,2.44989 2.545229,2.199418 0.846901,0.01104 1.696995,-0.277983 2.52899,0.0096 1.275679,0.156982 2.905762,-0.548312 2.966424,-1.997995 0.10932,-0.592067 -0.212912,-1.155775 -0.443063,-1.634737 0.200452,-1.780128 -0.940664,-3.890646 -2.879769,-4.015096 -0.156265,-0.02663 -0.313795,-0.04139 -0.471717,-0.03967 z m 22.673827,0.08008 c -0.71137,0.0054 -1.41867,0.34279 -2.1111,0.038 -1.28013,-0.2161 -2.97705,0.428896 -3.09111,1.893641 -0.0738,0.653916 0.17573,1.322769 0.60846,1.810549 -0.98651,0.81494 -1.16512,2.581676 0.008,3.322266 0.96578,0.764218 2.28722,0.572693 3.39082,0.379932 1.2496,0.37744 2.98404,0.246835 3.69903,-0.999073 0.4712,-0.891835 0.23953,-2.11688 -0.57813,-2.726563 1.13226,-0.995149 0.6959,-3.173814 -0.82428,-3.517855 -0.34683,-0.144107 -0.73025,-0.184115 -1.1015,-0.200895 z m -33.494139,1.375 c 0.205872,0.525476 -0.273142,-0.25472 0,0 z m 32.308589,1.107422 c -0.0408,0.416606 -0.34395,-0.108949 0,0 z m -0.0254,2.404297 c -0.2369,0.24131 -0.046,-0.29121 0,0 z" /><path
         id="path21"
         style="fill:#1a1a1a;fill-opacity:1;fill-rule:evenodd;stroke-width:0.251392;stroke-linecap:square;stroke-miterlimit:9.5;paint-order:stroke fill markers"
         d="m -2.5722656,10.376953 c -1.2515161,0.404121 -2.8010968,-0.145972 -3.8457032,0.841797 -0.9178913,1.53988 -0.3940731,3.409819 -0.5214874,5.09804 -0.013298,2.638527 -0.012585,5.277079 -0.011716,7.915632 25.6399742,0 51.2799482,0 76.9199222,0 -0.832709,-1.258729 0.07465,-3.074061 -1.146484,-4.146484 -1.534004,-0.888084 -3.389792,-0.352884 -5.065235,-0.475096 -22.02578,-0.0131 -44.051561,-0.01424 -66.0773438,-0.0054 0,-3.088542 0,-6.177084 0,-9.265625 -0.083984,0.01237 -0.1679688,0.02474 -0.2519531,0.03711 z" /></g><g
       id="g14"
       transform="matrix(2.40947,0,0,2.40947,1142.7348,652.44038)"
       style="display:inline"><text
         xml:space="preserve"
         style="font-style:normal;font-variant:normal;font-weight:normal;font-stretch:normal;font-size:22.5778px;font-family:Rockwell;-inkscape-font-specification:Rockwell;text-align:center;letter-spacing:0.846667px;writing-mode:lr-tb;direction:rtl;text-anchor:middle;fill:#ffffff;fill-opacity:1;fill-rule:evenodd;stroke:#ffffff;stroke-width:0.830058;stroke-linecap:square;stroke-miterlimit:9.5;stroke-dasharray:none;stroke-opacity:1;paint-order:stroke fill markers"
         x="59.18795"
         y="14.335518"
         id="text10"><tspan
           sodipodi:role="line"
           id="tspan9"
           style="font-style:normal;font-variant:normal;font-weight:normal;font-stretch:normal;font-family:'Courier New';-inkscape-font-specification:'Courier New';letter-spacing:0px;writing-mode:lr-tb;direction:ltr;baseline-shift:baseline;fill:#ffffff;fill-opacity:1;stroke:#ffffff;stroke-width:0.830058;stroke-dasharray:none;stroke-opacity:1"
           x="59.187954"
           y="14.335518">slackware</tspan><tspan
           sodipodi:role="line"
           style="font-style:normal;font-variant:normal;font-weight:normal;font-stretch:normal;font-size:11.2889px;font-family:'Courier New';-inkscape-font-specification:'Courier New';letter-spacing:0px;fill:#ffffff;fill-opacity:1;stroke:#ffffff;stroke-width:0.830058;stroke-dasharray:none;stroke-opacity:1"
           x="59.18795"
           y="42.55777"
           id="tspan10" /></text><text
         xml:space="preserve"
         style="font-style:normal;font-variant:normal;font-weight:normal;font-stretch:normal;font-size:8.46667px;font-family:'Courier New';-inkscape-font-specification:'Courier New';text-align:end;letter-spacing:5.68854px;writing-mode:lr-tb;direction:ltr;text-anchor:end;fill:#ffffff;fill-rule:evenodd;stroke:#ffffff;stroke-width:0.34;stroke-linecap:square;stroke-miterlimit:9.5;stroke-dasharray:none;stroke-opacity:1;paint-order:stroke fill markers"
         x="116.16721"
         y="24.685843"
         id="text11"><tspan
           sodipodi:role="line"
           id="tspan11"
           style="font-size:8.46667px;letter-spacing:5.68854px;stroke-width:0.34;stroke-dasharray:none"
           x="121.85575"
           y="24.685843">linux</tspan></text><path
         d="M -4.9779907,12.590446 V 22.264 H 67.557633 v -0.69 H -4.2881104 v -8.983571 z"
         style="fill:#f9f9f9;fill-rule:evenodd;stroke-width:0.251392;stroke-linecap:square;stroke-miterlimit:9.5;paint-order:stroke fill markers"
         id="path14"
         sodipodi:nodetypes="ccccccc" /></g></g></svg>
